<svg width="76" height="53" viewBox="0 0 76 53" fill="none" xmlns="http://www.w3.org/2000/svg">
<mask id="mask0" mask-type="alpha" maskUnits="userSpaceOnUse" x="0" y="0" width="76" height="53">
<path d="M68.2935 0H7.89873C3.97459 0 0.793457 3.16385 0.793457 7.06667V45.9333C0.793457 49.8361 3.97459 53 7.89873 53H68.2935C72.2176 53 75.3988 49.8361 75.3988 45.9333V7.06667C75.3988 3.16385 72.2176 0 68.2935 0Z" fill="white"/>
</mask>
<g mask="url(#mask0)">
<path d="M68.2935 0H7.89873C3.97459 0 0.793457 3.16385 0.793457 7.06667V45.9333C0.793457 49.8361 3.97459 53 7.89873 53H68.2935C72.2176 53 75.3988 49.8361 75.3988 45.9333V7.06667C75.3988 3.16385 72.2176 0 68.2935 0Z" fill="white"/>
<path fill-rule="evenodd" clip-rule="evenodd" d="M0.793457 35.3334H75.3988V53H0.793457V35.3334Z" fill="black"/>
<path fill-rule="evenodd" clip-rule="evenodd" d="M0.793457 0H75.3988V17.6667H0.793457V0Z" fill="#007E35"/>
<path fill-rule="evenodd" clip-rule="evenodd" d="M0.793457 0V53H22.1093V0H0.793457Z" fill="#FF0400"/>
<path d="M68.2935 1.76672H7.89873C4.95563 1.76672 2.56978 4.13961 2.56978 7.06672V45.9334C2.56978 48.8605 4.95563 51.2334 7.89873 51.2334H68.2935C71.2366 51.2334 73.6225 48.8605 73.6225 45.9334V7.06672C73.6225 4.13961 71.2366 1.76672 68.2935 1.76672Z" stroke="black" stroke-opacity="0.1"/>
</g>
</svg>
