<svg width="75" height="53" viewBox="0 0 75 53" fill="none" xmlns="http://www.w3.org/2000/svg">
<mask id="mask0" mask-type="alpha" maskUnits="userSpaceOnUse" x="0" y="0" width="75" height="53">
<path d="M67.6636 0H7.26884C3.34471 0 0.163574 3.16385 0.163574 7.06667V45.9333C0.163574 49.8361 3.34471 53 7.26884 53H67.6636C71.5878 53 74.7689 49.8361 74.7689 45.9333V7.06667C74.7689 3.16385 71.5878 0 67.6636 0Z" fill="white"/>
</mask>
<g mask="url(#mask0)">
<path d="M67.6636 0H7.26884C3.34471 0 0.163574 3.16385 0.163574 7.06667V45.9333C0.163574 49.8361 3.34471 53 7.26884 53H67.6636C71.5878 53 74.7689 49.8361 74.7689 45.9333V7.06667C74.7689 3.16385 71.5878 0 67.6636 0Z" fill="white"/>
<path fill-rule="evenodd" clip-rule="evenodd" d="M0.163574 35.3333H74.7689V53H0.163574V35.3333ZM0.163574 0H74.7689V17.6667H0.163574V0Z" fill="#72ABE1"/>
<path d="M37.4662 31.8C40.4093 31.8 42.7952 29.4271 42.7952 26.5C42.7952 23.5728 40.4093 21.2 37.4662 21.2C34.5231 21.2 32.1373 23.5728 32.1373 26.5C32.1373 29.4271 34.5231 31.8 37.4662 31.8Z" fill="#F8B500"/>
<path d="M67.6636 1.76672H7.26883C4.32573 1.76672 1.93988 4.13961 1.93988 7.06672V45.9334C1.93988 48.8605 4.32573 51.2334 7.26883 51.2334H67.6636C70.6067 51.2334 72.9926 48.8605 72.9926 45.9334V7.06672C72.9926 4.13961 70.6067 1.76672 67.6636 1.76672Z" stroke="black" stroke-opacity="0.1"/>
</g>
</svg>
