<svg width="76" height="53" viewBox="0 0 76 53" fill="none" xmlns="http://www.w3.org/2000/svg">
<mask id="mask0" mask-type="alpha" maskUnits="userSpaceOnUse" x="0" y="0" width="76" height="53">
<path d="M68.1422 0H7.74742C3.82329 0 0.642151 3.16385 0.642151 7.06667V45.9333C0.642151 49.8361 3.82329 53 7.74742 53H68.1422C72.0663 53 75.2475 49.8361 75.2475 45.9333V7.06667C75.2475 3.16385 72.0663 0 68.1422 0Z" fill="white"/>
</mask>
<g mask="url(#mask0)">
<path d="M68.1422 0H7.74742C3.82329 0 0.642151 3.16385 0.642151 7.06667V45.9333C0.642151 49.8361 3.82329 53 7.74742 53H68.1422C72.0663 53 75.2475 49.8361 75.2475 45.9333V7.06667C75.2475 3.16385 72.0663 0 68.1422 0Z" fill="white"/>
<path fill-rule="evenodd" clip-rule="evenodd" d="M0.642151 35.3333H75.2475V53H0.642151V35.3333ZM0.642151 0H75.2475V17.6667H0.642151V0Z" fill="#F02532"/>
<path d="M68.1422 1.76672H7.74741C4.80431 1.76672 2.41846 4.13961 2.41846 7.06672V45.9334C2.41846 48.8605 4.80431 51.2334 7.74741 51.2334H68.1422C71.0853 51.2334 73.4711 48.8605 73.4711 45.9334V7.06672C73.4711 4.13961 71.0853 1.76672 68.1422 1.76672Z" stroke="black" stroke-opacity="0.1"/>
</g>
</svg>
