<svg width="134" height="129" viewBox="0 0 134 129" fill="none" xmlns="http://www.w3.org/2000/svg">
<path opacity="0.2" d="M0.356689 25.1395C0.356689 11.3324 11.5496 0.139526 25.3567 0.139526H108.328C122.135 0.139526 133.328 11.3324 133.328 25.1395V103.235C133.328 117.042 122.135 128.235 108.328 128.235H25.3567C11.5496 128.235 0.356689 117.042 0.356689 103.235V25.1395Z" fill="#951898"/>
<path d="M55.1366 69.2518V82.0613H48.488V88.4661H58.4609V94.8709H65.1095V88.4661H71.7581V94.8709H78.4066V88.3028C84.9488 87.5054 90.0416 82.1702 90.0416 75.6565C90.0416 71.4294 87.8809 67.7018 84.5898 65.3673C87.017 62.9848 88.3776 59.7804 88.3795 56.4422C88.3795 50.4921 84.1277 45.5188 78.4066 44.0874V37.2278H71.7581V43.6326H65.1095V37.2278H58.4609V43.6326H48.488V50.0374H55.1366V69.2518ZM76.7445 82.0613H61.7852V69.2518H76.7445C80.4112 69.2518 83.3931 72.1243 83.3931 75.6565C83.3931 79.1888 80.4112 82.0613 76.7445 82.0613ZM61.7852 50.0374H75.0823C78.749 50.0374 81.7309 52.91 81.7309 56.4422C81.7309 59.9744 78.749 62.847 75.0823 62.847H61.7852V50.0374Z" fill="#951898"/>
</svg>
