<svg width="146" height="71" viewBox="0 0 146 71" fill="none" xmlns="http://www.w3.org/2000/svg">
<path opacity="0.1" d="M22.0539 25.5C10.7992 25.1628 2.89642 43.5256 0 50.1292V71H145.091C131.664 70.4923 127.526 4 117.234 4C106.941 4 101.001 13.7889 95.7603 22.5C91.457 30.2557 87.6352 34 80.2992 36.7118C70.0376 37.049 64.7197 19.7111 62.0991 11C59.7819 1.22089 53.4039 1.49998 53.4039 4C51.255 3.9937 48.7507 5.61588 48.7507 15.8022C48.7507 27.1831 39.9305 32.1003 37.7237 32.2408C34.6371 32.4373 24.3986 25.4999 22.0539 25.5Z" fill="url(#paint0_linear)"/>
<path d="M24.3753 24.9109L24.3451 25.9104C24.3552 25.9108 24.3653 25.9109 24.3754 25.9109L24.3753 24.9109ZM36.3131 33.6876L36.3772 34.6856L36.3131 33.6876ZM53.3936 1L53.3906 2H53.3936L53.3936 1ZM60.5637 11.3774L59.5902 11.606C59.5947 11.6252 59.5997 11.6442 59.6054 11.6631L60.5637 11.3774ZM81.2511 36.5L81.3153 35.5021C81.2829 35.5 81.2504 35.4995 81.218 35.5006L81.2511 36.5ZM93.0647 27.8712L92.2057 27.3591C92.1998 27.3691 92.194 27.3792 92.1884 27.3894L93.0647 27.8712ZM2.21155 46.2182C3.618 42.9824 6.53657 37.7684 10.4606 33.424C14.411 29.0504 19.1984 25.7548 24.3451 25.9104L24.4056 23.9114C18.3621 23.7286 13.0489 27.5746 8.97639 32.0834C4.87748 36.6215 1.85071 42.0311 0.377317 45.421L2.21155 46.2182ZM24.3754 25.9109C24.366 25.9109 24.4064 25.9099 24.5115 25.949C24.6136 25.9869 24.748 26.0519 24.9168 26.1533C25.2572 26.3578 25.6685 26.668 26.1459 27.0727C27.1036 27.8847 28.202 28.9676 29.3747 30.0943C30.5262 31.2006 31.7441 32.3438 32.8795 33.1984C33.4482 33.6264 34.0244 34.0039 34.5856 34.2704C35.1359 34.5317 35.7529 34.7257 36.3772 34.6856L36.2489 32.6897C36.106 32.6989 35.8474 32.6555 35.4435 32.4638C35.0507 32.2773 34.5945 31.986 34.0823 31.6005C33.0559 30.8279 31.9183 29.7646 30.7604 28.6521C29.6237 27.5599 28.4588 26.4116 27.4392 25.5472C26.9279 25.1137 26.422 24.7244 25.9467 24.4389C25.5001 24.1706 24.948 23.9109 24.3753 23.9109L24.3754 25.9109ZM36.3772 34.6856C39.1439 34.5078 44.6004 31.3265 47.9577 21.318L46.0615 20.682C42.8363 30.297 37.8705 32.5855 36.2489 32.6897L36.3772 34.6856ZM47.9577 21.318C49.6211 16.3591 50.6978 11.2917 51.6063 7.55444C52.0666 5.66093 52.4747 4.14623 52.8865 3.11269C53.0942 2.59155 53.2765 2.26198 53.4227 2.07854C53.5738 1.88901 53.5644 2.00051 53.3906 2L53.3966 7.33137e-06C52.6887 -0.00208843 52.1819 0.426607 51.8589 0.831713C51.5311 1.24291 51.2625 1.7854 51.0286 2.37242C50.5573 3.5552 50.1201 5.2012 49.6629 7.08201C48.7363 10.8934 47.6893 15.8292 46.0615 20.682L47.9577 21.318ZM53.3936 2C53.8214 2 54.7597 2.07212 55.8793 3.21046C57.0438 4.39452 58.459 6.78845 59.5902 11.606L61.5372 11.1489C60.3645 6.15451 58.8313 3.35972 57.3052 1.80803C55.7341 0.210631 54.2393 -5.00679e-06 53.3936 2.92063e-06L53.3936 2ZM59.6054 11.6631C60.9299 16.1062 63.5899 22.5714 67.2325 27.9071C70.8253 33.1696 75.6204 37.6873 81.2843 37.4995L81.218 35.5006C76.679 35.6511 72.4332 31.9776 68.8843 26.7794C65.3853 21.6542 62.8031 15.389 61.522 11.0918L59.6054 11.6631ZM81.187 37.498C83.7823 37.6647 89.4824 36.4621 93.9409 28.353L92.1884 27.3894C88.0897 34.8438 83.1083 35.6173 81.3153 35.5021L81.187 37.498ZM93.9236 28.3833C96.5273 24.0164 100.114 18.2473 104.301 13.5753C108.528 8.85788 113.156 5.50001 117.814 5.50001V3.50001C112.239 3.50001 107.097 7.45757 102.811 12.2406C98.4842 17.0692 94.8132 22.9858 92.2057 27.3591L93.9236 28.3833ZM117.814 5.50001C118.169 5.50001 118.597 5.64341 119.113 6.03851C119.632 6.436 120.188 7.05035 120.769 7.88684C121.931 9.56054 123.088 11.9674 124.201 14.8312C126.423 20.5461 128.394 27.8668 129.892 34.2291C131.387 40.5831 132.401 45.9396 132.714 47.7059C132.753 47.9267 132.781 48.0879 132.797 48.1863C132.801 48.2107 132.804 48.2301 132.806 48.2448C132.807 48.2521 132.808 48.2578 132.809 48.262C132.81 48.2664 132.81 48.268 132.81 48.2677C132.81 48.2678 132.809 48.2647 132.809 48.2637C132.809 48.262 132.808 48.255 132.808 48.2516C132.807 48.2463 132.806 48.231 132.805 48.2222C132.805 48.2079 132.803 48.166 132.803 48.1393C132.806 48.079 132.869 47.8004 132.973 47.6004C133.613 47.1767 134.543 47.4864 134.68 47.6791C134.708 47.7347 134.743 47.8178 134.752 47.8433C134.756 47.8574 134.763 47.8809 134.765 47.8892C134.769 47.9013 134.72 47.6586 134.604 47.0075C134.385 45.7837 133.963 43.336 133.31 39.3389L131.336 39.6611C131.99 43.664 132.413 46.1225 132.635 47.3597C132.739 47.9391 132.809 48.3155 132.836 48.4164C132.839 48.4275 132.847 48.4533 132.852 48.4691C132.861 48.4964 132.896 48.5808 132.925 48.637C133.062 48.8304 133.993 49.1403 134.633 48.7164C134.737 48.516 134.8 48.2366 134.803 48.175C134.804 48.1067 134.798 48.0496 134.798 48.0487C134.796 48.0316 134.794 48.0165 134.793 48.0065C134.788 47.9686 134.78 47.918 134.771 47.8651C134.753 47.753 134.723 47.5811 134.684 47.3566C134.365 45.5604 133.344 40.1669 131.838 33.7709C130.335 27.3832 128.339 19.9539 126.065 14.1063C124.931 11.1888 123.707 8.61135 122.411 6.74599C121.763 5.81295 121.071 5.0191 120.329 4.45077C119.584 3.88005 118.739 3.50001 117.814 3.50001V5.50001Z" fill="#DD09E1"/>
<defs>
<linearGradient id="paint0_linear" x1="72.5457" y1="4" x2="72.5457" y2="71" gradientUnits="userSpaceOnUse">
<stop offset="0.208333" stop-color="#9807BC"/>
<stop offset="0.776042" stop-color="#C92EFF" stop-opacity="0"/>
</linearGradient>
</defs>
</svg>
