<svg width="76" height="53" viewBox="0 0 76 53" fill="none" xmlns="http://www.w3.org/2000/svg">
<mask id="mask0" mask-type="alpha" maskUnits="userSpaceOnUse" x="0" y="0" width="76" height="53">
<path d="M68.3487 0H7.95396C4.02983 0 0.848694 3.16385 0.848694 7.06667V45.9333C0.848694 49.8361 4.02983 53 7.95396 53H68.3487C72.2729 53 75.454 49.8361 75.454 45.9333V7.06667C75.454 3.16385 72.2729 0 68.3487 0Z" fill="white"/>
</mask>
<g mask="url(#mask0)">
<path d="M68.3487 0H7.95396C4.02983 0 0.848694 3.16385 0.848694 7.06667V45.9333C0.848694 49.8361 4.02983 53 7.95396 53H68.3487C72.2729 53 75.454 49.8361 75.454 45.9333V7.06667C75.454 3.16385 72.2729 0 68.3487 0Z" fill="#C8032B"/>
<path fill-rule="evenodd" clip-rule="evenodd" d="M22.1645 31.8H0.848694V21.2H22.1645V0H32.8224V21.2H75.454V31.8H32.8224V53H22.1645V31.8Z" fill="white"/>
<path d="M68.3487 1.76672H7.95395C5.01085 1.76672 2.625 4.13961 2.625 7.06672V45.9334C2.625 48.8605 5.01085 51.2334 7.95395 51.2334H68.3487C71.2918 51.2334 73.6777 48.8605 73.6777 45.9334V7.06672C73.6777 4.13961 71.2918 1.76672 68.3487 1.76672Z" stroke="black" stroke-opacity="0.1"/>
</g>
</svg>
