<svg width="135" height="70" viewBox="0 0 135 70" fill="none" xmlns="http://www.w3.org/2000/svg">
<mask id="mask0" mask-type="alpha" maskUnits="userSpaceOnUse" x="0" y="0" width="135" height="70">
<rect x="0.268799" y="0.67688" width="134.664" height="69.1067" fill="#C4C4C4"/>
</mask>
<g mask="url(#mask0)">
<path opacity="0.1" d="M22.3565 27.5698C11.3875 27.2282 0.956697 43.2675 -1.86621 49.9556V71.0933H139.543V18.3378C126.456 17.8236 122.318 6.22457 112.286 6.22457C102.255 6.22457 93.1981 23.0159 88.0899 31.8384C83.8959 39.6933 78.5458 41.3725 76.395 41.2302C66.3939 41.5717 58.7855 24.012 56.2314 15.1895C53.9731 5.28535 51.4306 3.23639 50.1823 3.2364C48.0879 3.23001 44.9398 6.1393 41.7136 16.0433C38.4874 25.9473 33.3793 28.708 31.2285 28.8503C28.2202 29.0493 24.6417 27.5697 22.3565 27.5698Z" fill="url(#paint0_linear)"/>
<path d="M22.2476 27.5698L22.2164 28.5693C22.2268 28.5696 22.2372 28.5698 22.2477 28.5698L22.2476 27.5698ZM31.0798 28.8503L31.1461 29.8481L31.0798 28.8503ZM49.9484 3.2364L49.9453 4.2364H49.9484L49.9484 3.2364ZM55.9703 15.1895L54.9951 15.4109C54.9993 15.4295 55.0041 15.4481 55.0094 15.4665L55.9703 15.1895ZM76.0433 41.2302L76.1096 40.2324C76.0761 40.2301 76.0425 40.2296 76.009 40.2308L76.0433 41.2302ZM87.6856 31.8384L86.8192 31.3391C86.8135 31.349 86.8079 31.359 86.8026 31.3691L87.6856 31.8384ZM-0.94429 50.343C0.418498 47.0997 3.65756 41.5131 7.89376 36.7946C12.1726 32.0287 17.23 28.4133 22.2164 28.5693L22.2789 26.5702C16.3456 26.3847 10.7511 30.6182 6.40554 35.4585C2.01731 40.3463 -1.3407 46.1235 -2.78813 49.5682L-0.94429 50.343ZM22.2477 28.5698C23.2432 28.5697 24.5521 28.899 26.1764 29.2607C27.7183 29.6041 29.4877 29.9583 31.1461 29.8481L31.0134 27.8525C29.677 27.9413 28.1678 27.6552 26.6111 27.3085C25.1368 26.9802 23.527 26.5697 22.2476 26.5698L22.2477 28.5698ZM31.1461 29.8481C33.8773 29.6665 39.1987 26.4363 42.4689 16.3518L40.5665 15.7349C37.4133 25.4584 32.5645 27.7494 31.0134 27.8525L31.1461 29.8481ZM42.4689 16.3518C44.0589 11.4489 45.6051 8.35876 46.961 6.51614C48.3397 4.64248 49.3834 4.23467 49.9453 4.2364L49.9514 2.2364C48.4284 2.23174 46.8626 3.27539 45.3501 5.33078C43.8148 7.41721 42.1882 10.7338 40.5665 15.7349L42.4689 16.3518ZM49.9484 4.2364C50.0251 4.2364 50.7078 4.34865 51.7289 6.02017C52.7172 7.63818 53.882 10.5073 54.9951 15.4109L56.9455 14.9682C55.8103 9.96754 54.5855 6.86013 53.4356 4.97761C52.3184 3.14861 51.1143 2.23639 49.9484 2.2364L49.9484 4.2364ZM55.0094 15.4665C56.2984 19.9392 58.8611 26.6291 62.3821 32.1819C64.1425 34.9581 66.1703 37.4946 68.4359 39.3241C70.7049 41.1563 73.2733 42.3258 76.0775 42.2296L76.009 40.2308C73.8351 40.3053 71.7232 39.4079 69.6924 37.7681C67.6582 36.1255 65.7667 33.7847 64.0712 31.1108C60.6804 25.7636 58.1847 19.2624 56.9312 14.9126L55.0094 15.4665ZM75.9769 42.228C78.616 42.4034 84.2637 40.4067 88.5686 32.3078L86.8026 31.3691C82.7571 38.9799 77.7528 40.3416 76.1096 40.2324L75.9769 42.228ZM88.552 32.3378C91.1112 27.8976 94.5956 21.57 98.6797 16.3384C100.719 13.7256 102.877 11.4287 105.104 9.79179C107.332 8.15401 109.563 7.22457 111.773 7.22457V5.22457C108.99 5.22457 106.349 6.39404 103.919 8.18033C101.488 9.96754 99.2015 12.4198 97.1032 15.1077C92.9113 20.4774 89.3451 26.9567 86.8192 31.3391L88.552 32.3378ZM111.773 7.22457C116.365 7.22457 119.612 9.86266 123.595 12.885C127.521 15.8637 132.023 19.0668 138.868 19.337L138.947 17.3385C132.764 17.0945 128.691 14.241 124.804 11.2917C120.974 8.38597 117.168 5.22457 111.773 5.22457V7.22457Z" fill="#DD09E1"/>
</g>
<defs>
<linearGradient id="paint0_linear" x1="68.8383" y1="3.23639" x2="68.8383" y2="71.0933" gradientUnits="userSpaceOnUse">
<stop offset="0.208333" stop-color="#9807BC"/>
<stop offset="0.776042" stop-color="#C92EFF" stop-opacity="0"/>
</linearGradient>
</defs>
</svg>
