<svg width="75" height="53" viewBox="0 0 75 53" fill="none" xmlns="http://www.w3.org/2000/svg">
<mask id="mask0" mask-type="alpha" maskUnits="userSpaceOnUse" x="0" y="0" width="75" height="53">
<path d="M67.5 0H7.10527C3.18114 0 0 3.16385 0 7.06667V45.9333C0 49.8361 3.18114 53 7.10527 53H67.5C71.4242 53 74.6053 49.8361 74.6053 45.9333V7.06667C74.6053 3.16385 71.4242 0 67.5 0Z" fill="white"/>
</mask>
<g mask="url(#mask0)">
<path d="M67.5 0H7.10527C3.18114 0 0 3.16385 0 7.06667V45.9333C0 49.8361 3.18114 53 7.10527 53H67.5C71.4242 53 74.6053 49.8361 74.6053 45.9333V7.06667C74.6053 3.16385 71.4242 0 67.5 0Z" fill="white"/>
<path fill-rule="evenodd" clip-rule="evenodd" d="M21.3158 31.8H0V21.2H21.3158V0H31.9737V21.2H74.6053V31.8H31.9737V53H21.3158V31.8Z" fill="#003282"/>
<path d="M67.5 1.76672H7.10527C4.16217 1.76672 1.77632 4.13961 1.77632 7.06672V45.9334C1.77632 48.8605 4.16217 51.2334 7.10527 51.2334H67.5C70.4431 51.2334 72.829 48.8605 72.829 45.9334V7.06672C72.829 4.13961 70.4431 1.76672 67.5 1.76672Z" stroke="black" stroke-opacity="0.1"/>
</g>
</svg>
