<svg width="167" height="95" viewBox="0 0 167 95" fill="none" xmlns="http://www.w3.org/2000/svg">
<path opacity="0.1" d="M0 64.6902C3.29672 55.5731 18.3493 7.97466 22.3632 24.5993C25.2303 29.465 35.7109 45.2018 39.2242 44.9305C41.7359 44.7365 48.1669 31.0354 55.0479 18.5171C60.3792 8.81807 66.9373 33.5168 69.3832 33.5255C69.3832 33.5255 73.6157 45.0762 76.2538 58.5547C80.1608 51.9607 92.9898 31.4787 98.054 33.5255C104.935 36.3066 103.788 48.0655 110.096 43.1998C115.256 29.819 116.403 14.4108 126.151 2.6519C135.899 -9.10698 141.259 45.7427 156.542 46.4436L166.864 24.5993V94.7811H1.72025L0 64.6902Z" fill="url(#paint0_linear)"/>
<path d="M26.8543 28.3907L27.8058 28.0829L26.8543 28.3907ZM38.9585 43.5677L39.0183 44.5659L38.9585 43.5677ZM60.2845 17.487L60.2817 18.487H60.2845L60.2845 17.487ZM67.0906 29.658L66.1209 29.9023C66.1261 29.9226 66.1318 29.9428 66.1382 29.9627L67.0906 29.658ZM77.7453 59.0762L76.8032 59.4115C76.9377 59.7893 77.2849 60.0503 77.6852 60.0744C78.0856 60.0985 78.4616 59.8811 78.6404 59.5222L77.7453 59.0762ZM109.11 43.5677L108.267 43.0287C108.261 43.0389 108.255 43.0491 108.249 43.0595L109.11 43.5677ZM2.6282 65.4803C3.06281 64.5484 3.62405 62.7956 4.27847 60.5945C4.94038 58.3682 5.72466 55.5873 6.59935 52.5592C8.35438 46.4834 10.4857 39.3695 12.8104 33.4034C13.9732 30.4194 15.1737 27.7508 16.3861 25.6543C17.6185 23.5233 18.7872 22.1204 19.8328 21.5015C20.3307 21.2068 20.7523 21.1185 21.1238 21.1626C21.4971 21.207 21.9425 21.3998 22.4594 21.8906C23.5317 22.9088 24.7129 25.0202 25.9029 28.6985L27.8058 28.0829C26.5953 24.3412 25.2902 21.8206 23.8366 20.4403C23.0906 19.732 22.2632 19.284 21.3598 19.1766C20.4545 19.069 19.5952 19.318 18.8141 19.7804C17.3016 20.6757 15.9194 22.4662 14.6547 24.6531C13.37 26.8746 12.1271 29.6486 10.9469 32.6773C8.58579 38.7367 6.43275 45.929 4.6779 52.0042C3.79765 55.0516 3.02061 57.8073 2.36141 60.0245C1.69473 62.2669 1.17508 63.8643 0.815651 64.6349L2.6282 65.4803ZM25.9029 28.6985C27.3217 33.0846 29.5612 37.0407 31.8999 39.8916C33.0684 41.3162 34.2831 42.4909 35.4585 43.3047C36.609 44.1014 37.8434 44.6362 39.0183 44.5659L38.8988 42.5695C38.3813 42.6004 37.6017 42.3562 36.597 41.6605C35.6171 40.9819 34.5352 39.9508 33.4462 38.6232C31.2695 35.9698 29.1493 32.2361 27.8058 28.0829L25.9029 28.6985ZM39.0183 44.5659C41.9739 44.3889 47.9847 41.1788 51.6968 30.866L49.815 30.1887C46.2672 40.0449 40.7831 42.4566 38.8988 42.5695L39.0183 44.5659ZM51.6968 30.866C53.492 25.8786 55.2382 22.7337 56.7722 20.8557C58.3199 18.9608 59.5379 18.485 60.2817 18.487L60.2872 16.4871C58.6745 16.4826 56.9432 17.4847 55.2232 19.5905C53.4895 21.7131 51.6497 25.0916 49.815 30.1887L51.6968 30.866ZM60.2845 18.487C60.4922 18.487 61.2961 18.6741 62.4337 20.352C63.5498 21.9981 64.8643 24.915 66.1209 29.9023L68.0603 29.4137C66.776 24.3163 65.3897 21.1478 64.0891 19.2296C62.81 17.3431 61.4813 16.487 60.2845 16.487L60.2845 18.487ZM66.1382 29.9627C69.0126 38.9481 69.1552 37.9205 76.8032 59.4115L78.6875 58.7409C70.9734 37.0644 70.9161 38.3345 68.0431 29.3533L66.1382 29.9627ZM78.6404 59.5222C84.7128 47.3341 89.3433 40.9236 92.887 37.9474C94.6453 36.4707 96.0599 35.9044 97.1877 35.8211C98.2939 35.7394 99.2634 36.1121 100.171 36.8075C101.097 37.5167 101.925 38.5379 102.698 39.6778C103.49 40.8469 104.117 41.97 104.795 43.036C105.117 43.543 105.446 44.0268 105.78 44.427C106.105 44.8144 106.499 45.2035 106.974 45.4303C107.506 45.6847 108.12 45.7208 108.713 45.4082C109.236 45.1326 109.639 44.6392 109.971 44.0758L108.249 43.0595C107.991 43.4959 107.822 43.617 107.781 43.6389C107.773 43.6428 107.794 43.6317 107.831 43.6319C107.863 43.6321 107.868 43.6412 107.836 43.6256C107.748 43.5836 107.575 43.455 107.314 43.1435C107.064 42.845 106.791 42.449 106.483 41.9634C105.899 41.0441 105.149 39.7304 104.353 38.5559C103.538 37.3522 102.567 36.123 101.387 35.2197C100.19 34.3024 98.7475 33.7004 97.0404 33.8265C95.3548 33.951 93.5544 34.7751 91.6008 36.4159C87.7207 39.6747 82.9396 46.4081 76.8503 58.6303L78.6404 59.5222ZM109.952 44.1066C110.731 42.8885 111.561 40.9815 112.427 38.7132C113.3 36.4252 114.238 33.6931 115.222 30.782C117.198 24.94 119.364 18.3703 121.628 13.0117C122.759 10.3323 123.9 7.99357 125.033 6.21809C126.193 4.39996 127.24 3.34383 128.121 2.98142C128.522 2.81645 128.871 2.80205 129.21 2.91085C129.57 3.02604 130.01 3.30956 130.515 3.90163C131.543 5.10708 132.645 7.36397 133.756 11.0576L135.671 10.4818C134.541 6.72394 133.343 4.13638 132.037 2.60422C131.375 1.82749 130.641 1.26892 129.821 1.0062C128.981 0.737088 128.145 0.808945 127.36 1.13189C125.869 1.7453 124.54 3.27158 123.347 5.14221C122.126 7.05547 120.935 9.51186 119.785 12.2336C117.486 17.6773 115.291 24.3343 113.328 30.1413C112.342 33.0547 111.416 35.7527 110.558 38.0001C109.693 40.2673 108.925 42.001 108.267 43.0287L109.952 44.1066ZM133.756 11.0576C136.01 18.5547 138.67 25.3521 141.428 30.9487C144.178 36.5292 147.054 40.9749 149.764 43.7195C151.115 45.0881 152.487 46.0975 153.842 46.5723C155.24 47.0622 156.64 46.9827 157.872 46.1381C159.049 45.3311 159.937 43.9159 160.591 42.0248C161.25 40.1184 161.71 37.6172 161.954 34.4867L159.96 34.3315C159.724 37.3677 159.284 39.6844 158.701 41.3712C158.112 43.0734 157.414 44.027 156.741 44.4886C156.123 44.9127 155.408 45.0019 154.503 44.6848C153.555 44.3526 152.436 43.5794 151.187 42.3143C148.696 39.7914 145.932 35.5651 143.222 30.0646C140.519 24.5803 137.898 17.8878 135.671 10.4818L133.756 11.0576Z" fill="#DD09E1"/>
<defs>
<linearGradient id="paint0_linear" x1="84.292" y1="2.27924" x2="84.292" y2="94.7811" gradientUnits="userSpaceOnUse">
<stop offset="0.208333" stop-color="#9807BC"/>
<stop offset="0.776042" stop-color="#C92EFF" stop-opacity="0"/>
</linearGradient>
</defs>
</svg>
