<svg width="128" height="128" viewBox="0 0 128 128" fill="none" xmlns="http://www.w3.org/2000/svg">
<path opacity="0.2" d="M0 25.7749C0 11.9678 11.1929 0.774902 25 0.774902H102.379C116.186 0.774902 127.379 11.9678 127.379 25.7749V102.677C127.379 116.484 116.186 127.677 102.379 127.677H25C11.1929 127.677 0 116.484 0 102.677V25.7749Z" fill="#951898"/>
<path d="M63.5 89C58.6544 89 53.9175 87.5631 49.8885 84.871C45.8595 82.1789 42.7193 78.3525 40.865 73.8757C39.0106 69.399 38.5254 64.4728 39.4708 59.7203C40.4161 54.9678 42.7495 50.6023 46.1759 47.1759C49.6023 43.7495 53.9678 41.4161 58.7203 40.4708C63.4728 39.5254 68.399 40.0106 72.8757 41.865C77.3525 43.7193 81.1789 46.8595 83.871 50.8885C86.5631 54.9175 88 59.6544 88 64.5C88 70.9978 85.4188 77.2295 80.8241 81.8241C76.2295 86.4188 69.9978 89 63.5 89ZM62.9651 81.4908H68.2408C68.3487 81.4906 68.4551 81.4655 68.5517 81.4175C68.6484 81.3694 68.7326 81.2997 68.7978 81.2137C68.863 81.1277 68.9075 81.0278 68.9277 80.9218C68.948 80.8158 68.9435 80.7066 68.9145 80.6026L64.7699 66.4784L68.6593 67.6666L67.8263 64.8389L63.8981 63.6956L61.3501 55.092H74.9803C75.0883 55.0914 75.1947 55.0658 75.2912 55.0173C75.3878 54.9687 75.4717 54.8985 75.5366 54.8121C75.6014 54.7257 75.6454 54.6255 75.6651 54.5192C75.6847 54.413 75.6796 54.3037 75.65 54.1998L74.4617 50.1165C74.4048 49.9222 74.2866 49.7516 74.1246 49.6301C73.9627 49.5087 73.7658 49.4429 73.5634 49.4427H52.7465L56.2643 61.3293L52.3729 60.1451L53.2304 62.9238L57.13 64.108L62.0749 80.8088C62.1291 81.0041 62.2456 81.1764 62.4066 81.2995C62.5677 81.4225 62.7645 81.4897 62.9671 81.4908H62.9651Z" fill="#951898"/>
</svg>
