<svg width="75" height="53" viewBox="0 0 75 53" fill="none" xmlns="http://www.w3.org/2000/svg">
<mask id="mask0" mask-type="alpha" maskUnits="userSpaceOnUse" x="0" y="0" width="75" height="53">
<path d="M67.5062 0H7.11143C3.1873 0 0.00616455 3.16385 0.00616455 7.06667V45.9333C0.00616455 49.8361 3.1873 53 7.11143 53H67.5062C71.4303 53 74.6115 49.8361 74.6115 45.9333V7.06667C74.6115 3.16385 71.4303 0 67.5062 0Z" fill="white"/>
</mask>
<g mask="url(#mask0)">
<path d="M67.5062 0H7.11143C3.1873 0 0.00616455 3.16385 0.00616455 7.06667V45.9333C0.00616455 49.8361 3.1873 53 7.11143 53H67.5062C71.4303 53 74.6115 49.8361 74.6115 45.9333V7.06667C74.6115 3.16385 71.4303 0 67.5062 0Z" fill="#22438B"/>
<path fill-rule="evenodd" clip-rule="evenodd" d="M10.6641 3.53333L3.46643 3.62519L3.5588 10.6L63.8896 49.5656L71.1263 49.4349L70.9913 42.5025L10.6641 3.53333Z" fill="white"/>
<path fill-rule="evenodd" clip-rule="evenodd" d="M7.11141 3.53333L3.55878 7.06666L67.5062 49.4667L71.0588 45.9333L7.11141 3.53333Z" fill="#C7152A"/>
<path fill-rule="evenodd" clip-rule="evenodd" d="M63.9536 3.53333H71.0588V10.6C71.0588 10.6 29.3154 36.7325 10.728 49.5656C10.5042 49.7211 3.62982 49.5762 3.62982 49.5762L3.07916 42.8593L63.9536 3.53333Z" fill="white"/>
<path fill-rule="evenodd" clip-rule="evenodd" d="M67.659 3.43457L71.0588 7.06684L7.11141 49.4668L3.55878 45.9335L67.659 3.43457Z" fill="#C7152A"/>
<path fill-rule="evenodd" clip-rule="evenodd" d="M28.4272 3.53333H46.1904V17.6667H71.0588V35.3333H46.1904V49.4667H28.4272V35.3333H3.55878V17.6667H28.4272V3.53333Z" fill="white"/>
<path fill-rule="evenodd" clip-rule="evenodd" d="M31.9799 3.53333H42.6378V21.2H71.0588V31.8H42.6378V49.4667H31.9799V31.8H3.55878V21.2H31.9799V3.53333Z" fill="#C7152A"/>
<path d="M67.5062 1.76672H7.11142C4.16832 1.76672 1.78247 4.13961 1.78247 7.06672V45.9334C1.78247 48.8605 4.16832 51.2334 7.11142 51.2334H67.5062C70.4493 51.2334 72.8352 48.8605 72.8352 45.9334V7.06672C72.8352 4.13961 70.4493 1.76672 67.5062 1.76672Z" stroke="black" stroke-opacity="0.1"/>
</g>
</svg>
