<svg width="480" height="480" viewBox="0 0 480 480" fill="none" xmlns="http://www.w3.org/2000/svg">
<g clip-path="url(#clip0)">
<path d="M404.005 135.988C421.679 135.988 436.002 121.661 436.002 103.991C436.002 86.3205 421.679 71.9937 404.005 71.9937C386.335 71.9937 372.008 86.3205 372.008 103.991C372.008 121.661 386.335 135.988 404.005 135.988ZM404.005 87.9922C412.844 87.9922 420.004 95.1557 420.004 103.991C420.004 112.826 412.844 119.989 404.005 119.989C395.17 119.989 388.006 112.826 388.006 103.991C388.006 95.1557 395.17 87.9922 404.005 87.9922Z" fill="url(#paint0_linear)"/>
<path d="M429.995 206.716C451.001 173.055 475.999 127.989 475.999 103.991C476.088 64.8849 444.927 32.8682 405.833 31.9034C366.739 30.9387 334.031 61.3774 332.191 100.44C329.515 99.1279 326.758 97.9835 324.012 96.8V7.99929C324.012 3.58171 320.434 0 316.013 0H12.0398C7.62224 0 4.04053 3.58171 4.04053 7.99929V119.989C4.04053 124.407 7.62224 127.989 12.0398 127.989H114.328C112.656 129.414 110.953 130.781 109.328 132.262C102.055 138.886 95.2707 146.038 89.033 153.65C26.0229 230.94 29.5773 342.841 97.3721 415.975C165.167 489.105 276.481 501.116 358.314 444.128C358.65 443.898 358.97 443.632 359.298 443.402C368.024 437.238 376.242 430.384 383.874 422.908C389.221 417.654 394.271 412.112 399.005 406.3C428.069 370.608 443.958 326.002 444.001 279.975C444.048 254.888 439.291 230.023 429.995 206.716V206.716ZM390.897 390.438C378.335 382.388 364.938 375.724 350.939 370.561C358.989 343.747 363.345 315.964 363.891 287.974H427.659C426.011 325.053 413.196 360.769 390.897 390.438ZM380.312 403.491C379.402 404.499 378.449 405.468 377.523 406.452C376.144 407.901 374.785 409.354 373.371 410.756C372.363 411.756 371.313 412.717 370.281 413.69C368.899 415.002 367.512 416.315 366.098 417.58C365.001 418.564 363.876 419.498 362.755 420.451C361.345 421.642 359.939 422.849 358.505 423.978C357.329 424.915 356.107 425.81 354.939 426.716C353.506 427.802 352.068 428.892 350.603 429.915C349.373 430.794 348.115 431.649 346.862 432.497C345.389 433.489 343.909 434.473 342.405 435.426C341.124 436.227 339.827 437.024 338.526 437.824C337.015 438.727 335.492 439.613 333.949 440.48C332.613 441.234 331.269 441.961 329.949 442.679C328.398 443.496 326.836 444.296 325.262 445.082C323.887 445.753 322.508 446.417 321.126 447.058C319.528 447.792 317.927 448.495 316.325 449.183C314.927 449.784 313.517 450.386 312.103 450.944C310.455 451.6 308.799 452.206 307.142 452.815C305.713 453.335 304.287 453.854 302.846 454.342L302.67 454.401C322.083 435.051 336.855 411.553 345.87 385.669C358.107 390.188 369.852 395.941 380.921 402.843C380.679 403.054 380.503 403.284 380.312 403.491V403.491ZM180.978 452.823C179.306 452.218 177.634 451.6 175.986 450.944C174.58 450.378 173.178 449.796 171.787 449.191C170.186 448.503 168.573 447.792 166.94 447.058C165.565 446.417 164.186 445.753 162.827 445.082C161.23 444.308 159.656 443.507 158.109 442.679C156.765 441.965 155.433 441.238 154.109 440.496C152.566 439.633 151.039 438.738 149.516 437.832C148.215 437.031 146.918 436.235 145.637 435.434C144.134 434.481 142.645 433.497 141.173 432.497C139.919 431.649 138.677 430.802 137.447 429.931C135.974 428.884 134.525 427.794 133.088 426.732C131.896 425.833 130.686 424.931 129.545 424.001C128.104 422.849 126.686 421.658 125.28 420.467C124.159 419.513 123.042 418.58 121.944 417.604C120.518 416.338 119.136 415.026 117.753 413.717C116.722 412.741 115.679 411.78 114.671 410.78C113.257 409.37 111.89 407.917 110.512 406.468C109.586 405.483 108.641 404.523 107.731 403.515C107.535 403.3 107.359 403.077 107.168 402.867C118.237 395.965 129.982 390.211 142.224 385.692C151.234 411.577 166.007 435.075 185.419 454.424L185.235 454.366C183.81 453.854 182.427 453.343 180.978 452.823V452.823ZM97.1377 169.512C109.68 177.543 123.053 184.202 137.021 189.366C129.041 216.2 124.725 243.986 124.182 271.976H60.3832C62.0354 234.897 74.8467 199.185 97.1377 169.512V169.512ZM108.969 155.193C110.015 154.057 111.09 152.947 112.168 151.842C114.015 149.94 115.898 148.073 117.823 146.245C118.937 145.186 120.05 144.14 121.182 143.116C123.264 141.253 125.393 139.46 127.584 137.699C128.608 136.859 129.607 135.996 130.646 135.179C133.845 132.668 137.134 130.246 140.493 127.981H165.835C156.011 142.331 148.047 157.869 142.134 174.223C129.955 169.723 118.261 164.005 107.234 157.154C107.824 156.506 108.379 155.826 108.969 155.185V155.193ZM302.182 127.989C314.532 143.421 324.211 160.81 330.828 179.433C305.244 187.124 278.731 191.295 252.018 191.831V127.989H302.182ZM324.012 119.989V114.228C327.625 115.974 331.148 117.841 334.581 119.829C334.695 120.228 334.843 120.677 334.964 121.087C335.206 121.95 335.476 122.837 335.765 123.731C336.101 124.813 336.452 125.911 336.835 127.036C337.124 127.891 337.421 128.75 337.741 129.629L338.108 130.66C338.452 131.582 338.819 132.539 339.19 133.492C339.558 134.445 339.987 135.621 340.468 136.691C340.971 137.917 341.507 139.179 342.069 140.452C342.19 140.73 342.292 141.003 342.421 141.253L342.811 142.194C343.053 142.749 343.315 143.315 343.573 143.874C344.155 145.186 344.788 146.553 345.42 147.874C345.987 149.092 346.541 150.276 347.139 151.537C347.565 152.436 348.022 153.354 348.475 154.275C348.818 154.978 349.178 155.697 349.541 156.42C350.084 157.513 350.603 158.587 351.139 159.705C351.994 161.392 352.924 163.153 353.841 164.896C354.451 166.048 355.021 167.161 355.65 168.337L356.236 169.419C356.322 169.579 356.388 169.719 356.474 169.879C353.092 171.375 349.443 172.657 345.885 174.008C339.726 156.99 331.316 140.87 320.887 126.079C322.801 124.63 323.953 122.388 324.012 119.989ZM152.141 194.608C179.365 202.834 207.589 207.282 236.02 207.829V271.976H140.181C140.716 245.771 144.735 219.75 152.141 194.608V194.608ZM236.02 287.974V352.121C207.526 352.668 179.24 357.136 151.965 365.401C144.637 340.224 140.665 314.191 140.142 287.974H236.02ZM236.02 368.12V463.357C202.984 458.889 174.236 427.025 157.019 380.576C182.665 372.85 209.245 368.659 236.02 368.12ZM252.018 368.12C278.797 368.659 305.377 372.85 331.023 380.576C313.806 427.017 285.059 458.889 252.018 463.357V368.12ZM336.077 365.401C308.799 357.136 280.516 352.668 252.018 352.121V287.974H347.901C347.377 314.191 343.401 340.224 336.077 365.401ZM252.018 271.976V207.829C280.453 207.278 308.677 202.83 335.902 194.608C343.307 219.75 347.33 245.771 347.862 271.976H252.018ZM236.02 191.831C209.311 191.295 182.798 187.124 157.214 179.433C163.831 160.81 173.514 143.425 185.856 127.989H236.02V191.831ZM124.151 287.974C124.698 315.964 129.053 343.747 137.103 370.561C123.089 375.717 109.68 382.384 97.1065 390.438C74.8233 360.761 62.0197 325.049 60.3832 287.974H124.151ZM363.86 271.976C363.317 243.986 358.997 216.196 351.021 189.358C355.564 187.636 359.985 185.808 364.282 183.87C380.562 212.012 397.24 236.26 397.424 236.522C398.916 238.686 401.376 239.979 404.005 239.979C406.63 239.979 409.09 238.69 410.582 236.53L411.942 234.538L412.157 234.225L413.485 232.261L414.508 230.714C415.191 229.698 415.926 228.597 416.75 227.339L418.453 224.75L419.172 223.644C424.198 239.291 427.065 255.552 427.702 271.976H363.86ZM404.005 47.9957C434.916 48.0309 459.965 73.0794 460 103.991C460 119.532 444.091 153.939 416.406 198.279L415.75 199.318C415.324 199.982 414.91 200.631 414.254 201.591C410.352 207.845 406.821 213.325 404.005 217.59C396.982 206.927 385.401 188.839 374.594 169.665C363.7 151.787 355.177 132.57 349.244 112.494C348.6 110.127 348.209 107.701 348.076 105.256C348.076 105.088 348.029 104.143 348.01 103.975C348.057 73.0716 373.101 48.0309 404.005 47.9957ZM20.0391 15.9986H308.013V111.99H20.0391V15.9986Z" fill="url(#paint1_linear)"/>
<path d="M92.0326 31.9971H44.0369C39.6193 31.9971 36.0376 35.5788 36.0376 39.9964V87.9921C36.0376 92.4097 39.6193 95.9914 44.0369 95.9914H92.0326C96.4541 95.9914 100.032 92.4097 100.032 87.9921V39.9964C100.032 35.5788 96.4541 31.9971 92.0326 31.9971ZM84.0333 79.9928H52.0362V47.9956H84.0333V79.9928Z" fill="url(#paint2_linear)"/>
<path d="M124.03 55.9949H284.016C288.437 55.9949 292.015 52.4132 292.015 47.9956C292.015 43.5781 288.437 39.9963 284.016 39.9963H124.03C119.612 39.9963 116.031 43.5781 116.031 47.9956C116.031 52.4132 119.612 55.9949 124.03 55.9949V55.9949Z" fill="url(#paint3_linear)"/>
<path d="M148.028 79.9929C148.028 75.5754 144.45 71.9937 140.028 71.9937H124.03C119.612 71.9937 116.031 75.5754 116.031 79.9929C116.031 84.4105 119.612 87.9922 124.03 87.9922H140.028C144.45 87.9922 148.028 84.4105 148.028 79.9929Z" fill="url(#paint4_linear)"/>
<path d="M188.024 71.9937H172.026C167.608 71.9937 164.026 75.5754 164.026 79.9929C164.026 84.4105 167.608 87.9922 172.026 87.9922H188.024C192.446 87.9922 196.024 84.4105 196.024 79.9929C196.024 75.5754 192.446 71.9937 188.024 71.9937Z" fill="url(#paint5_linear)"/>
<path d="M236.02 71.9937H220.021C215.604 71.9937 212.022 75.5754 212.022 79.9929C212.022 84.4105 215.604 87.9922 220.021 87.9922H236.02C240.441 87.9922 244.019 84.4105 244.019 79.9929C244.019 75.5754 240.441 71.9937 236.02 71.9937Z" fill="url(#paint6_linear)"/>
<path d="M284.016 71.9937H268.017C263.6 71.9937 260.018 75.5754 260.018 79.9929C260.018 84.4105 263.6 87.9922 268.017 87.9922H284.016C288.437 87.9922 292.015 84.4105 292.015 79.9929C292.015 75.5754 288.437 71.9937 284.016 71.9937Z" fill="url(#paint7_linear)"/>
</g>
<defs>
<linearGradient id="paint0_linear" x1="404.007" y1="-7.46329" x2="404.007" y2="483.341" gradientUnits="userSpaceOnUse">
<stop stop-color="#FEFEFE"/>
</linearGradient>
<linearGradient id="paint1_linear" x1="240.021" y1="-7.46334" x2="240.021" y2="483.341" gradientUnits="userSpaceOnUse">
<stop stop-color="#FEFEFE"/>
</linearGradient>
<linearGradient id="paint2_linear" x1="68.0365" y1="-7.46342" x2="68.0365" y2="483.341" gradientUnits="userSpaceOnUse">
<stop stop-color="#FCFCFC"/>
</linearGradient>
<linearGradient id="paint3_linear" x1="204.024" y1="-7.46344" x2="204.024" y2="483.341" gradientUnits="userSpaceOnUse">
<stop stop-color="#FEFEFE"/>
</linearGradient>
<linearGradient id="paint4_linear" x1="132.031" y1="-7.46329" x2="132.031" y2="483.341" gradientUnits="userSpaceOnUse">
<stop stop-color="#F1FEFF"/>
</linearGradient>
<linearGradient id="paint5_linear" x1="180.027" y1="-7.46329" x2="180.027" y2="483.341" gradientUnits="userSpaceOnUse">
<stop stop-color="#F1FEFF"/>
</linearGradient>
<linearGradient id="paint6_linear" x1="228.022" y1="-7.46329" x2="228.022" y2="483.341" gradientUnits="userSpaceOnUse">
<stop stop-color="#F1FEFF"/>
</linearGradient>
<linearGradient id="paint7_linear" x1="276.018" y1="-7.46329" x2="276.018" y2="483.341" gradientUnits="userSpaceOnUse">
<stop stop-color="#F1FEFF"/>
</linearGradient>
<clipPath id="clip0">
<rect width="480" height="480" fill="white"/>
</clipPath>
</defs>
</svg>
