<svg width="148" height="18" viewBox="0 0 148 18" fill="none" xmlns="http://www.w3.org/2000/svg">
<path d="M10.68 2.9V6.02H5.04V8.5H9.2V11.48H5.04V17H1.12V2.9H10.68ZM16.2509 14H20.6309V17H12.3309V2.9H16.2509V14ZM26.0752 2.9V17H22.1552V2.9H26.0752ZM39.4475 7.6C39.4475 8.45333 39.2475 9.23333 38.8475 9.94C38.4608 10.6333 37.8675 11.1933 37.0675 11.62C36.2808 12.0333 35.3142 12.24 34.1675 12.24H32.2275V17H28.3075V2.9H34.1675C35.3008 2.9 36.2608 3.1 37.0475 3.5C37.8475 3.9 38.4475 4.45333 38.8475 5.16C39.2475 5.86667 39.4475 6.68 39.4475 7.6ZM33.7875 9.12C34.8942 9.12 35.4475 8.61333 35.4475 7.6C35.4475 6.57333 34.8942 6.06 33.7875 6.06H32.2275V9.12H33.7875Z" fill="white"/>
<path d="M42.9223 17.16C42.229 17.16 41.669 16.9733 41.2423 16.6C40.829 16.2133 40.6223 15.7267 40.6223 15.14C40.6223 14.5533 40.829 14.0667 41.2423 13.68C41.669 13.2933 42.229 13.1 42.9223 13.1C43.6023 13.1 44.149 13.2933 44.5623 13.68C44.989 14.0667 45.2023 14.5533 45.2023 15.14C45.2023 15.7133 44.989 16.1933 44.5623 16.58C44.149 16.9667 43.6023 17.16 42.9223 17.16Z" fill="#FFD949"/>
<path d="M46.558 9.92C46.558 8.53333 46.8446 7.3 47.418 6.22C48.0046 5.12667 48.8313 4.28 49.898 3.68C50.9646 3.06667 52.1913 2.76 53.578 2.76C55.338 2.76 56.818 3.23333 58.018 4.18C59.218 5.11333 59.9913 6.38667 60.338 8H56.118C55.8646 7.46667 55.5113 7.06 55.058 6.78C54.618 6.5 54.1046 6.36 53.518 6.36C52.6113 6.36 51.8846 6.68667 51.338 7.34C50.8046 7.98 50.538 8.84 50.538 9.92C50.538 11.0133 50.8046 11.8867 51.338 12.54C51.8846 13.18 52.6113 13.5 53.518 13.5C54.1046 13.5 54.618 13.36 55.058 13.08C55.5113 12.8 55.8646 12.3933 56.118 11.86H60.338C59.9913 13.4733 59.218 14.7533 58.018 15.7C56.818 16.6333 55.338 17.1 53.578 17.1C52.1913 17.1 50.9646 16.8 49.898 16.2C48.8313 15.5867 48.0046 14.74 47.418 13.66C46.8446 12.5667 46.558 11.32 46.558 9.92ZM68.9542 17.14C67.6342 17.14 66.4209 16.8333 65.3142 16.22C64.2076 15.5933 63.3276 14.7333 62.6742 13.64C62.0342 12.5333 61.7142 11.2867 61.7142 9.9C61.7142 8.51333 62.0342 7.27333 62.6742 6.18C63.3276 5.07333 64.2076 4.21333 65.3142 3.6C66.4209 2.98667 67.6342 2.68 68.9542 2.68C70.2876 2.68 71.5009 2.98667 72.5942 3.6C73.7009 4.21333 74.5742 5.07333 75.2142 6.18C75.8542 7.27333 76.1742 8.51333 76.1742 9.9C76.1742 11.2867 75.8542 12.5333 75.2142 13.64C74.5742 14.7333 73.7009 15.5933 72.5942 16.22C71.4876 16.8333 70.2742 17.14 68.9542 17.14ZM68.9542 13.5C69.9542 13.5 70.7409 13.1733 71.3142 12.52C71.9009 11.8667 72.1942 10.9933 72.1942 9.9C72.1942 8.78 71.9009 7.9 71.3142 7.26C70.7409 6.60667 69.9542 6.28 68.9542 6.28C67.9409 6.28 67.1476 6.60667 66.5742 7.26C66.0009 7.9 65.7142 8.78 65.7142 9.9C65.7142 11.0067 66.0009 11.8867 66.5742 12.54C67.1476 13.18 67.9409 13.5 68.9542 13.5ZM81.8564 2.9V17H77.9364V2.9H81.8564ZM97.1488 17H93.2288L88.0088 9.12V17H84.0888V2.9H88.0088L93.2288 10.88V2.9H97.1488V17Z" fill="#8C30F5"/>
</svg>
