<svg width="17" height="18" viewBox="0 0 17 18" fill="none" xmlns="http://www.w3.org/2000/svg">
<path d="M8.954 8.616L11.911 5.659L2.36 0.291C1.727 -0.0509996 1.134 -0.0989994 0.614 0.275001L8.954 8.616ZM12.415 12.078L15.489 10.349C16.089 10.013 16.418 9.537 16.418 9.009C16.418 8.482 16.089 8.005 15.49 7.669L12.707 6.106L9.574 9.238L12.415 12.078V12.078ZM0.0999999 1.002C0.0359999 1.199 0 1.419 0 1.66V16.365C0 16.746 0.0840001 17.074 0.236 17.335L8.333 9.237L0.0999999 1.002ZM8.954 9.857L0.902 17.91C1.056 17.969 1.222 18 1.397 18C1.709 18 2.034 17.908 2.365 17.724L11.62 12.527L8.954 9.857V9.857Z" fill="#F8F8F8"/>
</svg>
