<svg width="76" height="53" viewBox="0 0 76 53" fill="none" xmlns="http://www.w3.org/2000/svg">
<mask id="mask0" mask-type="alpha" maskUnits="userSpaceOnUse" x="0" y="0" width="76" height="53">
<path d="M68.136 0H7.74125C3.81712 0 0.635986 3.16385 0.635986 7.06667V45.9333C0.635986 49.8361 3.81712 53 7.74125 53H68.136C72.0602 53 75.2413 49.8361 75.2413 45.9333V7.06667C75.2413 3.16385 72.0602 0 68.136 0Z" fill="white"/>
</mask>
<g mask="url(#mask0)">
<path d="M68.136 0H7.74125C3.81712 0 0.635986 3.16385 0.635986 7.06667V45.9333C0.635986 49.8361 3.81712 53 7.74125 53H68.136C72.0602 53 75.2413 49.8361 75.2413 45.9333V7.06667C75.2413 3.16385 72.0602 0 68.136 0Z" fill="#8F183C"/>
<path fill-rule="evenodd" clip-rule="evenodd" d="M18.3992 0L29.0571 3.53333L18.3992 7.06667L29.0571 10.6L18.3992 14.1333L29.0571 17.6667L18.3992 21.2L29.0571 24.7333L18.3992 28.2667L29.0571 31.8L18.3992 35.3333L29.0571 38.8667L18.3992 42.4L29.0571 45.9333L18.3992 49.4667L29.0571 53H0.635986V0H18.3992Z" fill="white"/>
<path d="M68.136 1.7666H7.74124C4.79814 1.7666 2.41229 4.13949 2.41229 7.0666V45.9333C2.41229 48.8604 4.79814 51.2333 7.74124 51.2333H68.136C71.0791 51.2333 73.465 48.8604 73.465 45.9333V7.0666C73.465 4.13949 71.0791 1.7666 68.136 1.7666Z" stroke="black" stroke-opacity="0.1"/>
</g>
</svg>
