<svg id="Capa_1" enable-background="new 0 0 512 512" height="512" viewBox="0 0 512 512" width="512" xmlns="http://www.w3.org/2000/svg" xmlns:xlink="http://www.w3.org/1999/xlink"><linearGradient id="SVGID_1_" gradientUnits="userSpaceOnUse" x1="256" x2="256" y1="482" y2="0"><stop offset="0" stop-color="#ffbef9"/><stop offset="1" stop-color="#fff1ff"/></linearGradient><linearGradient id="SVGID_2_" gradientUnits="userSpaceOnUse" x1="256" x2="256" y1="512" y2="181"><stop offset="0" stop-color="#a93aff"/><stop offset="1" stop-color="#ff81ff"/></linearGradient><g><g><g><path d="m196 316h8.203c10.664 18.296 30.352 30 51.797 30s41.133-11.704 51.797-30h8.203c16.816 0 30-13.184 30-30s-13.184-30-30-30h-8.203c-10.664-18.296-30.352-30-51.797-30s-41.133 11.704-51.797 30h-8.203c-16.816 0-30 13.184-30 30s13.184 30 30 30zm75 60c0-8.291-6.709-15-15-15s-15 6.709-15 15v61c0 8.291 6.709 15 15 15s15-6.709 15-15zm-45 76h-211c-8.291 0-15 6.709-15 15s6.709 15 15 15h211c8.291 0 15-6.709 15-15s-6.709-15-15-15zm271 0h-211c-8.291 0-15 6.709-15 15s6.709 15 15 15h211c8.291 0 15-6.709 15-15s-6.709-15-15-15zm-271-362c0-16.538 13.447-30 30-30s30 13.462 30 30v106h60v-106c0-49.629-40.371-90-90-90s-90 40.371-90 90v106h60z" fill="url(#SVGID_1_)"/></g></g><g><g><path d="m256 422c-24.814 0-45 20.186-45 45s20.186 45 45 45 45-20.186 45-45-20.186-45-45-45zm120-241h-240c-8.401 0-15 6.599-15 15v180c0 8.399 6.599 15 15 15h240c8.401 0 15-6.601 15-15v-180c0-8.401-6.599-15-15-15zm-60 120h-17.701c-6.299 17.399-22.798 30-42.299 30s-36-12.601-42.299-30h-17.701c-8.401 0-15-6.601-15-15 0-8.401 6.599-15 15-15h17.701c6.299-17.401 22.798-30 42.299-30s36 12.599 42.299 30h17.701c8.401 0 15 6.599 15 15 0 8.399-6.599 15-15 15z" fill="url(#SVGID_2_)"/></g></g></g></svg>