<svg width="1255" height="203" viewBox="0 0 1255 203" fill="none" xmlns="http://www.w3.org/2000/svg">
<path opacity="0.2" d="M44.764 31.665C45.2081 31.7596 45.5648 31.9817 45.8342 32.3311C46.1035 32.6733 46.2382 33.0664 46.2382 33.5105C46.2382 34.1511 46.0125 34.6607 45.5612 35.0393C45.1171 35.4106 44.4946 35.5962 43.6938 35.5962H40.123V27.9303H43.5737C44.3527 27.9303 44.9606 28.1087 45.3974 28.4654C45.8414 28.8221 46.0635 29.3062 46.0635 29.9178C46.0635 30.3691 45.9434 30.744 45.7031 31.0425C45.4702 31.341 45.1571 31.5485 44.764 31.665ZM41.9903 31.0316H43.2133C43.5191 31.0316 43.7521 30.9661 43.9122 30.835C44.0797 30.6967 44.1634 30.4965 44.1634 30.2344C44.1634 29.9724 44.0797 29.7722 43.9122 29.6338C43.7521 29.4955 43.5191 29.4264 43.2133 29.4264H41.9903V31.0316ZM43.3662 34.0892C43.6793 34.0892 43.9195 34.0201 44.087 33.8817C44.2617 33.7361 44.349 33.5287 44.349 33.2593C44.349 32.9899 44.258 32.7788 44.076 32.6259C43.9013 32.4731 43.6574 32.3966 43.3444 32.3966H41.9903V34.0892H43.3662ZM52.8359 27.9303V29.4264H50.8047V35.5962H48.9374V29.4264H46.9063V27.9303H52.8359ZM53.4564 31.7523C53.4564 30.9952 53.6202 30.3218 53.9478 29.7321C54.2754 29.1352 54.7304 28.6729 55.3128 28.3453C55.9024 28.0104 56.5686 27.843 57.3111 27.843C58.2211 27.843 59.0001 28.0832 59.648 28.5637C60.2959 29.0442 60.7291 29.6994 60.9475 30.5293H58.8945C58.7417 30.209 58.5233 29.9651 58.2393 29.7976C57.9627 29.6302 57.646 29.5465 57.2893 29.5465C56.7142 29.5465 56.2482 29.7467 55.8915 30.1471C55.5348 30.5475 55.3564 31.0826 55.3564 31.7523C55.3564 32.4221 55.5348 32.9572 55.8915 33.3576C56.2482 33.758 56.7142 33.9582 57.2893 33.9582C57.646 33.9582 57.9627 33.8745 58.2393 33.707C58.5233 33.5396 58.7417 33.2957 58.8945 32.9754H60.9475C60.7291 33.8053 60.2959 34.4605 59.648 34.941C59.0001 35.4142 58.2211 35.6508 57.3111 35.6508C56.5686 35.6508 55.9024 35.487 55.3128 35.1594C54.7304 34.8245 54.2754 34.3622 53.9478 33.7725C53.6202 33.1829 53.4564 32.5095 53.4564 31.7523Z" fill="white"/>
<path opacity="0.2" d="M129.767 27.9303V32.5167C129.767 32.9754 129.88 33.3285 130.106 33.576C130.331 33.8235 130.663 33.9473 131.099 33.9473C131.536 33.9473 131.871 33.8235 132.104 33.576C132.337 33.3285 132.453 32.9754 132.453 32.5167V27.9303H134.321V32.5058C134.321 33.1901 134.175 33.7689 133.884 34.2421C133.593 34.7153 133.2 35.072 132.705 35.3123C132.217 35.5525 131.671 35.6726 131.067 35.6726C130.462 35.6726 129.92 35.5562 129.44 35.3232C128.966 35.0829 128.591 34.7262 128.315 34.253C128.038 33.7725 127.9 33.1901 127.9 32.5058V27.9303H129.767ZM138.406 35.6726C137.845 35.6726 137.343 35.5816 136.899 35.3996C136.455 35.2176 136.098 34.9483 135.829 34.5915C135.567 34.2348 135.428 33.8053 135.414 33.303H137.401C137.43 33.5869 137.528 33.8053 137.696 33.9582C137.863 34.1038 138.082 34.1766 138.351 34.1766C138.628 34.1766 138.846 34.1147 139.006 33.9909C139.167 33.8599 139.247 33.6815 139.247 33.4559C139.247 33.2666 139.181 33.1101 139.05 32.9863C138.926 32.8625 138.77 32.7606 138.58 32.6805C138.398 32.6005 138.136 32.5095 137.794 32.4075C137.299 32.2547 136.895 32.1018 136.582 31.9489C136.269 31.796 136 31.5703 135.774 31.2719C135.548 30.9734 135.435 30.5839 135.435 30.1034C135.435 29.39 135.694 28.833 136.211 28.4326C136.728 28.025 137.401 27.8211 138.231 27.8211C139.076 27.8211 139.756 28.025 140.273 28.4326C140.79 28.833 141.067 29.3936 141.103 30.1143H139.083C139.068 29.8668 138.977 29.6739 138.81 29.5356C138.642 29.39 138.428 29.3172 138.166 29.3172C137.94 29.3172 137.758 29.379 137.62 29.5028C137.481 29.6193 137.412 29.7904 137.412 30.016C137.412 30.2636 137.528 30.4565 137.761 30.5948C137.994 30.7331 138.358 30.8824 138.853 31.0425C139.349 31.21 139.749 31.3701 140.055 31.523C140.368 31.6759 140.637 31.8979 140.863 32.1891C141.088 32.4803 141.201 32.8553 141.201 33.3139C141.201 33.7507 141.088 34.1475 140.863 34.5042C140.644 34.8609 140.324 35.1448 139.902 35.356C139.48 35.5671 138.981 35.6726 138.406 35.6726ZM145.222 27.9303C146.03 27.9303 146.737 28.0905 147.341 28.4108C147.945 28.7311 148.411 29.1825 148.739 29.7649C149.074 30.34 149.241 31.0061 149.241 31.7633C149.241 32.5131 149.074 33.1792 148.739 33.7616C148.411 34.344 147.942 34.7954 147.33 35.1157C146.726 35.436 146.023 35.5962 145.222 35.5962H142.35V27.9303H145.222ZM145.102 33.98C145.808 33.98 146.358 33.7871 146.751 33.4013C147.144 33.0154 147.341 32.4694 147.341 31.7633C147.341 31.0571 147.144 30.5074 146.751 30.1143C146.358 29.7212 145.808 29.5246 145.102 29.5246H144.218V33.98H145.102Z" fill="white"/>
<path d="M85.8366 37.4728L81.7661 32.8472L85.8366 28.2217" stroke="white" stroke-width="1.82001"/>
<path d="M89.9073 43.6395L93.9778 39.014L89.9073 34.3884" stroke="white" stroke-width="1.82001"/>
<g filter="url(#filter0_f)">
<ellipse rx="13.0577" ry="15.0042" transform="matrix(0.846131 0.532975 -0.438414 0.898773 247.287 107.257)" fill="url(#paint0_linear)"/>
</g>
<g filter="url(#filter1_d)">
<path d="M247.299 106.856C247.299 106.856 235.726 136.151 225.599 136.151C215.472 136.151 211.132 119.191 198.112 119.191C185.092 119.191 169.178 162.363 156.158 162.363C143.138 162.363 127.224 136.151 118.544 136.151C109.864 136.151 99.7374 156.195 83.8238 156.195C69.6577 156.195 69.6577 145.988 65.0169 148.736C60.3761 151.484 56.0498 151.523 48.9599 143.191C41.87 134.86 36.5845 151.435 28.8498 143.191" stroke="url(#paint1_linear)" stroke-width="2.73001" stroke-linecap="round" stroke-linejoin="round"/>
</g>
<path opacity="0.7" d="M36.7552 74.4548L32.8722 83.7678H30.1649L34.0943 74.7488H29.2831V72.4901H36.7552V74.4548ZM39.3256 83.8916C38.8615 83.8916 38.4799 83.7575 38.1808 83.4894C37.8921 83.2109 37.7477 82.8706 37.7477 82.4683C37.7477 82.0558 37.8921 81.7103 38.1808 81.4318C38.4799 81.1534 38.8615 81.0141 39.3256 81.0141C39.7794 81.0141 40.1507 81.1534 40.4395 81.4318C40.7386 81.7103 40.8881 82.0558 40.8881 82.4683C40.8881 82.8706 40.7386 83.2109 40.4395 83.4894C40.1507 83.7575 39.7794 83.8916 39.3256 83.8916ZM42.2839 75.6615C42.3252 74.558 42.6861 73.7071 43.3668 73.1089C44.0475 72.5108 44.9706 72.2117 46.136 72.2117C46.9095 72.2117 47.5695 72.3458 48.1161 72.6139C48.6731 72.882 49.0908 73.2482 49.3692 73.7123C49.658 74.1764 49.8024 74.6972 49.8024 75.2748C49.8024 75.9554 49.6322 76.5124 49.2919 76.9455C48.9515 77.3684 48.5545 77.6571 48.1007 77.8118V77.8737C48.6885 78.0697 49.1526 78.3946 49.493 78.8483C49.8333 79.3021 50.0035 79.8848 50.0035 80.5965C50.0035 81.2359 49.8539 81.8031 49.5549 82.2982C49.2661 82.7829 48.8381 83.1645 48.2708 83.443C47.7139 83.7214 47.0487 83.8606 46.2752 83.8606C45.0376 83.8606 44.0475 83.5564 43.3049 82.9479C42.5727 82.3394 42.1859 81.4215 42.1447 80.1942H44.7127C44.723 80.648 44.852 81.009 45.0995 81.2771C45.347 81.535 45.708 81.6639 46.1824 81.6639C46.5846 81.6639 46.894 81.5504 47.1106 81.3236C47.3375 81.0863 47.4509 80.7769 47.4509 80.3953C47.4509 79.9003 47.2911 79.5445 46.9714 79.3279C46.662 79.101 46.1618 78.9876 45.4708 78.9876H44.9757V76.8372H45.4708C45.9967 76.8372 46.4196 76.7496 46.7393 76.5742C47.0693 76.3886 47.2343 76.0637 47.2343 75.5996C47.2343 75.2283 47.1312 74.9396 46.9249 74.7333C46.7187 74.527 46.4351 74.4239 46.0741 74.4239C45.6822 74.4239 45.3882 74.5425 45.1923 74.7797C45.0067 75.0169 44.8984 75.3108 44.8674 75.6615H42.2839ZM59.5094 74.7797H54.6827V76.9146C54.889 76.6877 55.1777 76.502 55.549 76.3577C55.9203 76.2133 56.3225 76.1411 56.7557 76.1411C57.5292 76.1411 58.1686 76.3164 58.674 76.6671C59.1896 77.0177 59.5661 77.4715 59.8033 78.0284C60.0405 78.5853 60.1591 79.1887 60.1591 79.8384C60.1591 81.0451 59.8188 82.0042 59.1381 82.7159C58.4574 83.4172 57.4983 83.7678 56.2606 83.7678C55.4356 83.7678 54.7188 83.6286 54.1103 83.3501C53.5018 83.0614 53.0326 82.6643 52.7025 82.1589C52.3725 81.6536 52.192 81.0709 52.1611 80.4108H54.7446C54.8065 80.7305 54.956 80.9987 55.1932 81.2153C55.4304 81.4215 55.7553 81.5247 56.1678 81.5247C56.6526 81.5247 57.0135 81.37 57.2507 81.0606C57.4879 80.7512 57.6065 80.3386 57.6065 79.823C57.6065 79.3176 57.4828 78.9308 57.2353 78.6627C56.9877 78.3946 56.6268 78.2605 56.1524 78.2605C55.8017 78.2605 55.5129 78.3481 55.286 78.5235C55.0591 78.6885 54.9096 78.9102 54.8374 79.1887H52.2848V72.4592H59.5094V74.7797ZM67.204 75.5223C67.1215 75.1407 66.9771 74.8571 66.7709 74.6714C66.5646 74.4755 66.2707 74.3775 65.8891 74.3775C65.3012 74.3775 64.8784 74.6353 64.6205 75.151C64.3627 75.6563 64.2286 76.4608 64.2183 77.5643C64.4452 77.2034 64.7701 76.9197 65.1929 76.7135C65.6261 76.5072 66.1005 76.4041 66.6162 76.4041C67.6269 76.4041 68.4365 76.7238 69.045 77.3632C69.6638 78.0026 69.9732 78.8947 69.9732 80.0395C69.9732 80.7924 69.8185 81.4525 69.5091 82.0197C69.21 82.5869 68.7665 83.0304 68.1786 83.3501C67.6011 83.6698 66.9153 83.8297 66.1211 83.8297C64.5329 83.8297 63.4293 83.3347 62.8105 82.3446C62.1917 81.3442 61.8823 79.9106 61.8823 78.0439C61.8823 76.0844 62.2072 74.6302 62.8569 73.6813C63.517 72.7222 64.569 72.2426 66.0128 72.2426C66.7863 72.2426 67.4361 72.3973 67.9621 72.7067C68.4984 73.0058 68.9006 73.4029 69.1687 73.8979C69.4472 74.393 69.6122 74.9344 69.6638 75.5223H67.204ZM65.9819 78.4925C65.5384 78.4925 65.1671 78.6266 64.8681 78.8947C64.5793 79.1526 64.4349 79.5239 64.4349 80.0086C64.4349 80.5036 64.569 80.8904 64.8371 81.1688C65.1156 81.4473 65.5075 81.5865 66.0128 81.5865C66.4666 81.5865 66.8224 81.4525 67.0803 81.1843C67.3484 80.9059 67.4825 80.5294 67.4825 80.055C67.4825 79.5703 67.3536 79.1887 67.0957 78.9102C66.8379 78.6318 66.4666 78.4925 65.9819 78.4925ZM74.5789 81.3236L72.8617 85.7635H71.1755L72.0728 81.3236H74.5789ZM81.4957 75.5223C81.4132 75.1407 81.2688 74.8571 81.0626 74.6714C80.8563 74.4755 80.5624 74.3775 80.1808 74.3775C79.5929 74.3775 79.1701 74.6353 78.9122 75.151C78.6544 75.6563 78.5203 76.4608 78.51 77.5643C78.7369 77.2034 79.0618 76.9197 79.4846 76.7135C79.9178 76.5072 80.3922 76.4041 80.9079 76.4041C81.9186 76.4041 82.7282 76.7238 83.3367 77.3632C83.9555 78.0026 84.2649 78.8947 84.2649 80.0395C84.2649 80.7924 84.1102 81.4525 83.8008 82.0197C83.5017 82.5869 83.0582 83.0304 82.4703 83.3501C81.8928 83.6698 81.2069 83.8297 80.4128 83.8297C78.8246 83.8297 77.721 83.3347 77.1022 82.3446C76.4834 81.3442 76.174 79.9106 76.174 78.0439C76.174 76.0844 76.4989 74.6302 77.1486 73.6813C77.8087 72.7222 78.8607 72.2426 80.3045 72.2426C81.078 72.2426 81.7278 72.3973 82.2538 72.7067C82.79 73.0058 83.1923 73.4029 83.4604 73.8979C83.7389 74.393 83.9039 74.9344 83.9555 75.5223H81.4957ZM80.2736 78.4925C79.8301 78.4925 79.4588 78.6266 79.1597 78.8947C78.871 79.1526 78.7266 79.5239 78.7266 80.0086C78.7266 80.5036 78.8607 80.8904 79.1288 81.1688C79.4073 81.4473 79.7992 81.5865 80.3045 81.5865C80.7583 81.5865 81.1141 81.4525 81.372 81.1843C81.6401 80.9059 81.7742 80.5294 81.7742 80.055C81.7742 79.5703 81.6453 79.1887 81.3874 78.9102C81.1296 78.6318 80.7583 78.4925 80.2736 78.4925ZM92.9702 74.4548L89.0872 83.7678H86.3799L90.3093 74.7488H85.4981V72.4901H92.9702V74.4548Z" fill="white"/>
<path d="M219.66 33.4554V34.8769H215.256V33.4554H219.66ZM226.138 31.8638H223.015V33.2452C223.148 33.0984 223.335 32.9783 223.575 32.8849C223.815 32.7914 224.076 32.7447 224.356 32.7447C224.856 32.7447 225.27 32.8582 225.597 33.0851C225.931 33.312 226.174 33.6056 226.328 33.966C226.481 34.3263 226.558 34.7167 226.558 35.1371C226.558 35.9179 226.338 36.5385 225.897 36.999C225.457 37.4528 224.836 37.6797 224.036 37.6797C223.502 37.6797 223.038 37.5896 222.644 37.4094C222.25 37.2226 221.947 36.9656 221.733 36.6386C221.52 36.3116 221.403 35.9346 221.383 35.5075H223.055C223.095 35.7144 223.191 35.8879 223.345 36.028C223.498 36.1615 223.709 36.2282 223.976 36.2282C224.289 36.2282 224.523 36.1281 224.676 35.9279C224.83 35.7277 224.906 35.4608 224.906 35.1271C224.906 34.8001 224.826 34.5499 224.666 34.3764C224.506 34.2029 224.272 34.1161 223.966 34.1161C223.739 34.1161 223.552 34.1728 223.405 34.2863C223.258 34.3931 223.161 34.5365 223.115 34.7167H221.463V30.3623H226.138V31.8638ZM228.474 37.7598C228.174 37.7598 227.927 37.673 227.733 37.4995C227.546 37.3193 227.453 37.0991 227.453 36.8388C227.453 36.5719 227.546 36.3484 227.733 36.1682C227.927 35.988 228.174 35.8979 228.474 35.8979C228.768 35.8979 229.008 35.988 229.195 36.1682C229.388 36.3484 229.485 36.5719 229.485 36.8388C229.485 37.0991 229.388 37.3193 229.195 37.4995C229.008 37.673 228.768 37.7598 228.474 37.7598ZM230.268 36.3083C230.495 36.1281 230.598 36.0447 230.578 36.0581C231.232 35.5175 231.746 35.0737 232.12 34.7267C232.5 34.3797 232.821 34.016 233.081 33.6356C233.341 33.2552 233.471 32.8849 233.471 32.5245C233.471 32.2509 233.408 32.0374 233.281 31.8839C233.154 31.7304 232.964 31.6536 232.71 31.6536C232.457 31.6536 232.257 31.7504 232.11 31.9439C231.97 32.1308 231.9 32.3977 231.9 32.7447H230.248C230.261 32.1775 230.381 31.7037 230.608 31.3233C230.842 30.9429 231.146 30.6626 231.519 30.4825C231.9 30.3023 232.32 30.2122 232.781 30.2122C233.575 30.2122 234.172 30.4157 234.572 30.8228C234.979 31.2299 235.183 31.7604 235.183 32.4144C235.183 33.1285 234.939 33.7925 234.452 34.4064C233.965 35.0137 233.344 35.6076 232.59 36.1882H235.293V37.5796H230.268V36.3083ZM236.107 32.4344C236.133 31.7204 236.367 31.1698 236.807 30.7828C237.248 30.3957 237.845 30.2022 238.599 30.2022C239.1 30.2022 239.527 30.2889 239.881 30.4624C240.241 30.636 240.511 30.8729 240.691 31.1732C240.878 31.4735 240.972 31.8105 240.972 32.1842C240.972 32.6246 240.862 32.985 240.641 33.2653C240.421 33.5389 240.164 33.7257 239.871 33.8258V33.8659C240.251 33.9927 240.551 34.2029 240.771 34.4965C240.992 34.7901 241.102 35.1672 241.102 35.6276C241.102 36.0414 241.005 36.4084 240.811 36.7287C240.625 37.0424 240.348 37.2893 239.981 37.4695C239.62 37.6497 239.19 37.7397 238.689 37.7397C237.889 37.7397 237.248 37.5429 236.767 37.1492C236.294 36.7554 236.043 36.1615 236.017 35.3674H237.678C237.685 35.661 237.768 35.8946 237.929 36.0681C238.089 36.2349 238.322 36.3183 238.629 36.3183C238.89 36.3183 239.09 36.2449 239.23 36.0981C239.377 35.9446 239.45 35.7444 239.45 35.4975C239.45 35.1772 239.347 34.9469 239.14 34.8068C238.94 34.66 238.616 34.5866 238.169 34.5866H237.849V33.1952H238.169C238.509 33.1952 238.783 33.1385 238.99 33.025C239.203 32.9049 239.31 32.6947 239.31 32.3944C239.31 32.1541 239.243 31.9673 239.11 31.8338C238.976 31.7004 238.793 31.6336 238.559 31.6336C238.306 31.6336 238.115 31.7104 237.989 31.8638C237.869 32.0173 237.798 32.2075 237.778 32.4344H236.107ZM241.967 32.2142C241.967 31.6737 242.121 31.2566 242.428 30.9629C242.741 30.6693 243.145 30.5225 243.639 30.5225C244.133 30.5225 244.533 30.6693 244.84 30.9629C245.147 31.2566 245.301 31.6737 245.301 32.2142C245.301 32.7547 245.147 33.1718 244.84 33.4655C244.533 33.7591 244.133 33.9059 243.639 33.9059C243.145 33.9059 242.741 33.7591 242.428 33.4655C242.121 33.1718 241.967 32.7547 241.967 32.2142ZM248.764 30.6326L244.91 37.6797H243.259L247.113 30.6326H248.764ZM243.629 31.5235C243.309 31.5235 243.149 31.7537 243.149 32.2142C243.149 32.668 243.309 32.8949 243.629 32.8949C243.782 32.8949 243.903 32.8382 243.989 32.7247C244.076 32.6113 244.119 32.4411 244.119 32.2142C244.119 31.7537 243.956 31.5235 243.629 31.5235ZM246.732 36.0981C246.732 35.5576 246.886 35.1405 247.193 34.8468C247.5 34.5532 247.9 34.4064 248.394 34.4064C248.888 34.4064 249.288 34.5532 249.595 34.8468C249.902 35.1405 250.055 35.5576 250.055 36.0981C250.055 36.6386 249.902 37.0557 249.595 37.3494C249.288 37.643 248.888 37.7898 248.394 37.7898C247.9 37.7898 247.5 37.643 247.193 37.3494C246.886 37.0557 246.732 36.6386 246.732 36.0981ZM248.384 35.4074C248.23 35.4074 248.11 35.4641 248.023 35.5776C247.943 35.691 247.903 35.8645 247.903 36.0981C247.903 36.5519 248.063 36.7788 248.384 36.7788C248.537 36.7788 248.657 36.7221 248.744 36.6086C248.831 36.4952 248.874 36.325 248.874 36.0981C248.874 35.8712 248.831 35.701 248.744 35.5876C248.657 35.4675 248.537 35.4074 248.384 35.4074Z" fill="#E3507A"/>
<path d="M201.99 34.9966L200.756 33.5949C200.302 33.0788 199.565 33.0788 199.111 33.5949C198.657 34.111 198.657 34.9478 199.111 35.4639L200.345 36.8657L197.097 40.5567H205.238V31.3056L201.99 34.9966Z" fill="#E3507A"/>
<path opacity="0.2" d="M362.466 29.4264V30.977H364.967V32.4185H362.466V34.1001H365.295V35.5962H360.599V27.9303H365.295V29.4264H362.466ZM372.021 27.9303V29.4264H369.99V35.5962H368.123V29.4264H366.092V27.9303H372.021ZM379.598 27.9303V35.5962H377.731V32.4403H374.826V35.5962H372.959V27.9303H374.826V30.9333H377.731V27.9303H379.598Z" fill="white"/>
<path opacity="0.2" d="M435.697 27.9303V32.5167C435.697 32.9754 435.81 33.3285 436.035 33.576C436.261 33.8235 436.592 33.9473 437.029 33.9473C437.466 33.9473 437.801 33.8235 438.034 33.576C438.267 33.3285 438.383 32.9754 438.383 32.5167V27.9303H440.25V32.5058C440.25 33.1901 440.105 33.7689 439.814 34.2421C439.522 34.7153 439.129 35.072 438.634 35.3123C438.147 35.5525 437.601 35.6726 436.996 35.6726C436.392 35.6726 435.85 35.5562 435.369 35.3232C434.896 35.0829 434.521 34.7262 434.244 34.253C433.968 33.7725 433.829 33.1901 433.829 32.5058V27.9303H435.697ZM444.335 35.6726C443.775 35.6726 443.273 35.5816 442.828 35.3996C442.384 35.2176 442.028 34.9483 441.758 34.5915C441.496 34.2348 441.358 33.8053 441.343 33.303H443.331C443.36 33.5869 443.458 33.8053 443.626 33.9582C443.793 34.1038 444.011 34.1766 444.281 34.1766C444.557 34.1766 444.776 34.1147 444.936 33.9909C445.096 33.8599 445.176 33.6815 445.176 33.4559C445.176 33.2666 445.111 33.1101 444.98 32.9863C444.856 32.8625 444.699 32.7606 444.51 32.6805C444.328 32.6005 444.066 32.5095 443.724 32.4075C443.229 32.2547 442.825 32.1018 442.512 31.9489C442.199 31.796 441.929 31.5703 441.704 31.2719C441.478 30.9734 441.365 30.5839 441.365 30.1034C441.365 29.39 441.624 28.833 442.14 28.4326C442.657 28.025 443.331 27.8211 444.161 27.8211C445.005 27.8211 445.686 28.025 446.203 28.4326C446.72 28.833 446.996 29.3936 447.033 30.1143H445.012C444.998 29.8668 444.907 29.6739 444.739 29.5356C444.572 29.39 444.357 29.3172 444.095 29.3172C443.869 29.3172 443.687 29.379 443.549 29.5028C443.411 29.6193 443.342 29.7904 443.342 30.016C443.342 30.2636 443.458 30.4565 443.691 30.5948C443.924 30.7331 444.288 30.8824 444.783 31.0425C445.278 31.21 445.679 31.3701 445.984 31.523C446.297 31.6759 446.567 31.8979 446.792 32.1891C447.018 32.4803 447.131 32.8553 447.131 33.3139C447.131 33.7507 447.018 34.1475 446.792 34.5042C446.574 34.8609 446.254 35.1448 445.831 35.356C445.409 35.5671 444.911 35.6726 444.335 35.6726ZM451.152 27.9303C451.96 27.9303 452.666 28.0905 453.271 28.4108C453.875 28.7311 454.341 29.1825 454.668 29.7649C455.003 30.34 455.171 31.0061 455.171 31.7633C455.171 32.5131 455.003 33.1792 454.668 33.7616C454.341 34.344 453.871 34.7954 453.26 35.1157C452.655 35.436 451.953 35.5962 451.152 35.5962H448.28V27.9303H451.152ZM451.032 33.98C451.738 33.98 452.288 33.7871 452.681 33.4013C453.074 33.0154 453.271 32.4694 453.271 31.7633C453.271 31.0571 453.074 30.5074 452.681 30.1143C452.288 29.7212 451.738 29.5246 451.032 29.5246H450.147V33.98H451.032Z" fill="white"/>
<path d="M404.692 37.4728L400.622 32.8472L404.692 28.2217" stroke="white" stroke-width="1.82001"/>
<path d="M408.762 43.6395L412.833 39.014L408.762 34.3884" stroke="white" stroke-width="1.82001"/>
<g filter="url(#filter2_f)">
<ellipse rx="13.0577" ry="15.0042" transform="matrix(0.846131 0.532975 -0.438414 0.898773 566.142 107.257)" fill="url(#paint2_linear)"/>
</g>
<g filter="url(#filter3_d)">
<path d="M566.154 106.856C537.661 91.438 544.445 132.866 503.74 120.733C494.157 117.877 486.91 148.737 473.89 148.737C460.87 148.737 446.08 136.152 437.399 136.152C428.719 136.152 418.593 156.196 402.679 156.196C395.194 156.196 382.983 134.61 373.485 134.61C363.987 134.61 355.44 156.98 347.705 148.737" stroke="url(#paint3_linear)" stroke-width="2.73001" stroke-linecap="round" stroke-linejoin="round"/>
</g>
<path opacity="0.7" d="M348.463 81.7567V79.6218L353.352 72.6294H356.306V79.4671H357.575V81.7567H356.306V83.7678H353.661V81.7567H348.463ZM353.847 75.5377L351.248 79.4671H353.847V75.5377ZM364.455 75.5223C364.373 75.1407 364.228 74.8571 364.022 74.6714C363.816 74.4755 363.522 74.3775 363.14 74.3775C362.552 74.3775 362.13 74.6353 361.872 75.151C361.614 75.6563 361.48 76.4608 361.47 77.5643C361.696 77.2034 362.021 76.9197 362.444 76.7135C362.877 76.5072 363.352 76.4041 363.867 76.4041C364.878 76.4041 365.688 76.7238 366.296 77.3632C366.915 78.0026 367.224 78.8947 367.224 80.0395C367.224 80.7924 367.07 81.4525 366.76 82.0197C366.461 82.5869 366.018 83.0304 365.43 83.3501C364.852 83.6698 364.167 83.8297 363.372 83.8297C361.784 83.8297 360.681 83.3347 360.062 82.3446C359.443 81.3442 359.134 79.9106 359.134 78.0439C359.134 76.0844 359.458 74.6302 360.108 73.6813C360.768 72.7222 361.82 72.2426 363.264 72.2426C364.038 72.2426 364.687 72.3973 365.213 72.7067C365.75 73.0058 366.152 73.4029 366.42 73.8979C366.698 74.393 366.863 74.9344 366.915 75.5223H364.455ZM363.233 78.4925C362.79 78.4925 362.418 78.6266 362.119 78.8947C361.831 79.1526 361.686 79.5239 361.686 80.0086C361.686 80.5036 361.82 80.8904 362.088 81.1688C362.367 81.4473 362.759 81.5865 363.264 81.5865C363.718 81.5865 364.074 81.4525 364.332 81.1843C364.6 80.9059 364.734 80.5294 364.734 80.055C364.734 79.5703 364.605 79.1887 364.347 78.9102C364.089 78.6318 363.718 78.4925 363.233 78.4925ZM376.672 74.7797H371.846V76.9146C372.052 76.6877 372.341 76.502 372.712 76.3577C373.083 76.2133 373.485 76.1411 373.919 76.1411C374.692 76.1411 375.332 76.3164 375.837 76.6671C376.353 77.0177 376.729 77.4715 376.966 78.0284C377.203 78.5853 377.322 79.1887 377.322 79.8384C377.322 81.0451 376.982 82.0042 376.301 82.7159C375.62 83.4172 374.661 83.7678 373.424 83.7678C372.599 83.7678 371.882 83.6286 371.273 83.3501C370.665 83.0614 370.196 82.6643 369.865 82.1589C369.535 81.6536 369.355 81.0709 369.324 80.4108H371.908C371.969 80.7305 372.119 80.9987 372.356 81.2153C372.593 81.4215 372.918 81.5247 373.331 81.5247C373.815 81.5247 374.176 81.37 374.414 81.0606C374.651 80.7512 374.769 80.3386 374.769 79.823C374.769 79.3176 374.646 78.9308 374.398 78.6627C374.151 78.3946 373.79 78.2605 373.315 78.2605C372.965 78.2605 372.676 78.3481 372.449 78.5235C372.222 78.6885 372.073 78.9102 372 79.1887H369.448V72.4592H376.672V74.7797ZM381.892 81.3236L380.175 85.7635H378.488L379.386 81.3236H381.892ZM383.131 81.6484C383.482 81.37 383.642 81.241 383.611 81.2617C384.621 80.4263 385.415 79.7404 385.993 79.2042C386.581 78.6679 387.076 78.1058 387.478 77.5179C387.88 76.93 388.081 76.3577 388.081 75.8007C388.081 75.3779 387.984 75.0479 387.788 74.8106C387.592 74.5734 387.298 74.4548 386.906 74.4548C386.514 74.4548 386.204 74.6044 385.978 74.9035C385.761 75.1922 385.653 75.6048 385.653 76.1411H383.1C383.121 75.2644 383.306 74.5322 383.657 73.9443C384.018 73.3565 384.487 72.9233 385.065 72.6448C385.653 72.3664 386.302 72.2271 387.014 72.2271C388.241 72.2271 389.164 72.5417 389.783 73.1708C390.412 73.7999 390.727 74.6199 390.727 75.6306C390.727 76.7341 390.35 77.7603 389.598 78.7091C388.845 79.6476 387.886 80.5655 386.72 81.4628H390.897V83.6131H383.131V81.6484ZM391.969 81.6484C392.32 81.37 392.479 81.241 392.449 81.2617C393.459 80.4263 394.253 79.7404 394.831 79.2042C395.419 78.6679 395.914 78.1058 396.316 77.5179C396.718 76.93 396.919 76.3577 396.919 75.8007C396.919 75.3779 396.821 75.0479 396.625 74.8106C396.429 74.5734 396.136 74.4548 395.744 74.4548C395.352 74.4548 395.042 74.6044 394.815 74.9035C394.599 75.1922 394.491 75.6048 394.491 76.1411H391.938C391.959 75.2644 392.144 74.5322 392.495 73.9443C392.856 73.3565 393.325 72.9233 393.903 72.6448C394.491 72.3664 395.14 72.2271 395.852 72.2271C397.079 72.2271 398.002 72.5417 398.621 73.1708C399.25 73.7999 399.565 74.6199 399.565 75.6306C399.565 76.7341 399.188 77.7603 398.435 78.7091C397.683 79.6476 396.723 80.5655 395.558 81.4628H399.735V83.6131H391.969V81.6484Z" fill="white"/>
<path d="M527.075 34.9472H525.333V36.729H523.711V34.9472H521.97V33.4157H523.711V31.6239H525.333V33.4157H527.075V34.9472ZM527.935 31.9642V30.3726H530.708V37.6799H528.926V31.9642H527.935ZM531.939 32.4347C531.965 31.7206 532.199 31.1701 532.639 30.783C533.08 30.396 533.677 30.2024 534.431 30.2024C534.932 30.2024 535.359 30.2892 535.712 30.4627C536.073 30.6362 536.343 30.8731 536.523 31.1734C536.71 31.4737 536.804 31.8107 536.804 32.1844C536.804 32.6249 536.693 32.9852 536.473 33.2655C536.253 33.5391 535.996 33.726 535.702 33.8261V33.8661C536.083 33.9929 536.383 34.2031 536.603 34.4967C536.824 34.7904 536.934 35.1674 536.934 35.6279C536.934 36.0416 536.837 36.4087 536.643 36.729C536.457 37.0426 536.18 37.2895 535.813 37.4697C535.452 37.6499 535.022 37.74 534.521 37.74C533.72 37.74 533.08 37.5431 532.599 37.1494C532.126 36.7557 531.875 36.1617 531.849 35.3676H533.51C533.517 35.6612 533.6 35.8948 533.761 36.0683C533.921 36.2351 534.154 36.3186 534.461 36.3186C534.721 36.3186 534.922 36.2452 535.062 36.0983C535.209 35.9449 535.282 35.7447 535.282 35.4977C535.282 35.1774 535.179 34.9472 534.972 34.807C534.772 34.6602 534.448 34.5868 534.001 34.5868H533.68V33.1954H534.001C534.341 33.1954 534.615 33.1387 534.822 33.0253C535.035 32.9051 535.142 32.6949 535.142 32.3946C535.142 32.1544 535.075 31.9675 534.942 31.8341C534.808 31.7006 534.625 31.6339 534.391 31.6339C534.138 31.6339 533.947 31.7106 533.821 31.8641C533.7 32.0176 533.63 32.2078 533.61 32.4347H531.939ZM537.879 36.3086C538.106 36.1284 538.21 36.045 538.19 36.0583C538.844 35.5178 539.357 35.074 539.731 34.727C540.112 34.38 540.432 34.0163 540.692 33.6359C540.952 33.2555 541.083 32.8851 541.083 32.5248C541.083 32.2511 541.019 32.0376 540.892 31.8841C540.766 31.7306 540.575 31.6539 540.322 31.6539C540.068 31.6539 539.868 31.7506 539.721 31.9442C539.581 32.131 539.511 32.398 539.511 32.745H537.859C537.873 32.1777 537.993 31.7039 538.22 31.3236C538.453 30.9432 538.757 30.6629 539.131 30.4827C539.511 30.3025 539.931 30.2124 540.392 30.2124C541.186 30.2124 541.783 30.416 542.184 30.823C542.591 31.2301 542.794 31.7607 542.794 32.4146C542.794 33.1287 542.551 33.7927 542.064 34.4066C541.576 35.0139 540.956 35.6079 540.202 36.1884H542.904V37.5798H537.879V36.3086ZM543.518 32.2144C543.518 31.6739 543.671 31.2568 543.978 30.9632C544.292 30.6696 544.696 30.5227 545.19 30.5227C545.683 30.5227 546.084 30.6696 546.391 30.9632C546.698 31.2568 546.851 31.6739 546.851 32.2144C546.851 32.755 546.698 33.1721 546.391 33.4657C546.084 33.7593 545.683 33.9061 545.19 33.9061C544.696 33.9061 544.292 33.7593 543.978 33.4657C543.671 33.1721 543.518 32.755 543.518 32.2144ZM550.315 30.6329L546.461 37.6799H544.809L548.663 30.6329H550.315ZM545.18 31.5238C544.859 31.5238 544.699 31.754 544.699 32.2144C544.699 32.6682 544.859 32.8951 545.18 32.8951C545.333 32.8951 545.453 32.8384 545.54 32.725C545.627 32.6115 545.67 32.4413 545.67 32.2144C545.67 31.754 545.507 31.5238 545.18 31.5238ZM548.283 36.0983C548.283 35.5578 548.436 35.1407 548.743 34.8471C549.05 34.5535 549.451 34.4066 549.944 34.4066C550.438 34.4066 550.839 34.5535 551.146 34.8471C551.453 35.1407 551.606 35.5578 551.606 36.0983C551.606 36.6389 551.453 37.056 551.146 37.3496C550.839 37.6432 550.438 37.79 549.944 37.79C549.451 37.79 549.05 37.6432 548.743 37.3496C548.436 37.056 548.283 36.6389 548.283 36.0983ZM549.934 35.4077C549.781 35.4077 549.661 35.4644 549.574 35.5778C549.494 35.6913 549.454 35.8648 549.454 36.0983C549.454 36.5521 549.614 36.779 549.934 36.779C550.088 36.779 550.208 36.7223 550.295 36.6089C550.381 36.4954 550.425 36.3252 550.425 36.0983C550.425 35.8714 550.381 35.7013 550.295 35.5878C550.208 35.4677 550.088 35.4077 549.934 35.4077Z" fill="#50E3C2"/>
<path d="M511.888 36.866L510.86 38.2677C510.482 38.7838 509.868 38.7838 509.489 38.2677C509.111 37.7516 509.111 36.9148 509.489 36.3987L510.517 34.997L507.811 31.3059H514.595V40.557L511.888 36.866Z" fill="#50E3C2"/>
<path opacity="0.2" d="M681.694 34.1547H684.14V35.5962H679.827V27.9303H681.694V34.1547ZM690.545 27.9303V29.4264H688.514V35.5962H686.647V29.4264H684.616V27.9303H690.545ZM691.166 31.7523C691.166 30.9952 691.33 30.3218 691.657 29.7321C691.985 29.1352 692.44 28.6729 693.022 28.3453C693.612 28.0104 694.278 27.843 695.021 27.843C695.931 27.843 696.71 28.0832 697.358 28.5637C698.006 29.0442 698.439 29.6994 698.657 30.5293H696.604C696.451 30.209 696.233 29.9651 695.949 29.7976C695.672 29.6302 695.356 29.5465 694.999 29.5465C694.424 29.5465 693.958 29.7467 693.601 30.1471C693.244 30.5475 693.066 31.0826 693.066 31.7523C693.066 32.4221 693.244 32.9572 693.601 33.3576C693.958 33.758 694.424 33.9582 694.999 33.9582C695.356 33.9582 695.672 33.8745 695.949 33.707C696.233 33.5396 696.451 33.2957 696.604 32.9754H698.657C698.439 33.8053 698.006 34.4605 697.358 34.941C696.71 35.4142 695.931 35.6508 695.021 35.6508C694.278 35.6508 693.612 35.487 693.022 35.1594C692.44 34.8245 691.985 34.3622 691.657 33.7725C691.33 33.1829 691.166 32.5095 691.166 31.7523Z" fill="white"/>
<path opacity="0.2" d="M754.552 27.9303V32.5167C754.552 32.9754 754.665 33.3285 754.891 33.576C755.116 33.8235 755.448 33.9473 755.884 33.9473C756.321 33.9473 756.656 33.8235 756.889 33.576C757.122 33.3285 757.238 32.9754 757.238 32.5167V27.9303H759.106V32.5058C759.106 33.1901 758.96 33.7689 758.669 34.2421C758.378 34.7153 757.985 35.072 757.49 35.3123C757.002 35.5525 756.456 35.6726 755.852 35.6726C755.247 35.6726 754.705 35.5562 754.225 35.3232C753.751 35.0829 753.376 34.7262 753.1 34.253C752.823 33.7725 752.685 33.1901 752.685 32.5058V27.9303H754.552ZM763.191 35.6726C762.63 35.6726 762.128 35.5816 761.684 35.3996C761.24 35.2176 760.883 34.9483 760.614 34.5915C760.352 34.2348 760.213 33.8053 760.199 33.303H762.186C762.215 33.5869 762.314 33.8053 762.481 33.9582C762.648 34.1038 762.867 34.1766 763.136 34.1766C763.413 34.1766 763.631 34.1147 763.791 33.9909C763.952 33.8599 764.032 33.6815 764.032 33.4559C764.032 33.2666 763.966 33.1101 763.835 32.9863C763.711 32.8625 763.555 32.7606 763.365 32.6805C763.183 32.6005 762.921 32.5095 762.579 32.4075C762.084 32.2547 761.68 32.1018 761.367 31.9489C761.054 31.796 760.785 31.5703 760.559 31.2719C760.333 30.9734 760.22 30.5839 760.22 30.1034C760.22 29.39 760.479 28.833 760.996 28.4326C761.513 28.025 762.186 27.8211 763.016 27.8211C763.861 27.8211 764.541 28.025 765.058 28.4326C765.575 28.833 765.852 29.3936 765.888 30.1143H763.868C763.853 29.8668 763.762 29.6739 763.595 29.5356C763.427 29.39 763.213 29.3172 762.951 29.3172C762.725 29.3172 762.543 29.379 762.405 29.5028C762.266 29.6193 762.197 29.7904 762.197 30.016C762.197 30.2636 762.314 30.4565 762.546 30.5948C762.779 30.7331 763.143 30.8824 763.638 31.0425C764.134 31.21 764.534 31.3701 764.84 31.523C765.153 31.6759 765.422 31.8979 765.648 32.1891C765.873 32.4803 765.986 32.8553 765.986 33.3139C765.986 33.7507 765.873 34.1475 765.648 34.5042C765.429 34.8609 765.109 35.1448 764.687 35.356C764.265 35.5671 763.766 35.6726 763.191 35.6726ZM770.007 27.9303C770.816 27.9303 771.522 28.0905 772.126 28.4108C772.73 28.7311 773.196 29.1825 773.524 29.7649C773.859 30.34 774.026 31.0061 774.026 31.7633C774.026 32.5131 773.859 33.1792 773.524 33.7616C773.196 34.344 772.727 34.7954 772.115 35.1157C771.511 35.436 770.808 35.5962 770.007 35.5962H767.135V27.9303H770.007ZM769.887 33.98C770.593 33.98 771.143 33.7871 771.536 33.4013C771.929 33.0154 772.126 32.4694 772.126 31.7633C772.126 31.0571 771.929 30.5074 771.536 30.1143C771.143 29.7212 770.593 29.5246 769.887 29.5246H769.003V33.98H769.887Z" fill="white"/>
<path d="M723.547 37.4728L719.476 32.8472L723.547 28.2217" stroke="white" stroke-width="1.82001"/>
<path d="M727.617 43.6395L731.688 39.014L727.617 34.3884" stroke="white" stroke-width="1.82001"/>
<g filter="url(#filter4_f)">
<ellipse rx="16.1858" ry="15.0042" transform="matrix(0.846131 0.532975 -0.438414 0.898773 875.499 121.134)" fill="url(#paint4_linear)"/>
</g>
<g filter="url(#filter5_d)">
<path d="M875.511 125.359C852.445 174.698 833.45 125.359 821.238 138.464C804.652 156.265 800.338 125.359 787.318 125.359C774.297 125.359 771.036 156.196 754.754 156.196C735.164 156.196 739.235 131.526 724.904 131.526C717.418 131.526 712.692 156.196 697.767 156.196C682.842 156.196 686.912 120.733 666.56 120.733" stroke="url(#paint5_linear)" stroke-width="2.73001" stroke-linecap="round" stroke-linejoin="round"/>
</g>
<path opacity="0.7" d="M666.978 74.9344V72.4747H671.263V83.7678H668.509V74.9344H666.978ZM673.072 77.9665C673.072 76.1926 673.413 74.7952 674.093 73.7742C674.784 72.7531 675.893 72.2426 677.42 72.2426C678.946 72.2426 680.049 72.7531 680.73 73.7742C681.421 74.7952 681.767 76.1926 681.767 77.9665C681.767 79.7611 681.421 81.1688 680.73 82.1899C680.049 83.2109 678.946 83.7214 677.42 83.7214C675.893 83.7214 674.784 83.2109 674.093 82.1899C673.413 81.1688 673.072 79.7611 673.072 77.9665ZM679.168 77.9665C679.168 76.9249 679.054 76.1256 678.827 75.5687C678.6 75.0014 678.131 74.7178 677.42 74.7178C676.708 74.7178 676.239 75.0014 676.012 75.5687C675.785 76.1256 675.671 76.9249 675.671 77.9665C675.671 78.6679 675.713 79.2506 675.795 79.7147C675.878 80.1685 676.043 80.5397 676.29 80.8285C676.548 81.107 676.925 81.2462 677.42 81.2462C677.915 81.2462 678.286 81.107 678.533 80.8285C678.791 80.5397 678.961 80.1685 679.044 79.7147C679.126 79.2506 679.168 78.6679 679.168 77.9665ZM683.226 81.7567V79.6218L688.115 72.6294H691.069V79.4671H692.338V81.7567H691.069V83.7678H688.424V81.7567H683.226ZM688.61 75.5377L686.011 79.4671H688.61V75.5377ZM696.743 81.3236L695.026 85.7635H693.34L694.237 81.3236H696.743ZM697.983 81.6484C698.333 81.37 698.493 81.241 698.462 81.2617C699.473 80.4263 700.267 79.7404 700.845 79.2042C701.432 78.6679 701.927 78.1058 702.33 77.5179C702.732 76.93 702.933 76.3577 702.933 75.8007C702.933 75.3779 702.835 75.0479 702.639 74.8106C702.443 74.5734 702.149 74.4548 701.757 74.4548C701.365 74.4548 701.056 74.6044 700.829 74.9035C700.612 75.1922 700.504 75.6048 700.504 76.1411H697.952C697.972 75.2644 698.158 74.5322 698.509 73.9443C698.87 73.3565 699.339 72.9233 699.916 72.6448C700.504 72.3664 701.154 72.2271 701.866 72.2271C703.093 72.2271 704.016 72.5417 704.635 73.1708C705.264 73.7999 705.578 74.6199 705.578 75.6306C705.578 76.7341 705.202 77.7603 704.449 78.7091C703.696 79.6476 702.737 80.5655 701.572 81.4628H705.749V83.6131H697.983V81.6484ZM707.006 75.6615C707.047 74.558 707.408 73.7071 708.089 73.1089C708.77 72.5108 709.693 72.2117 710.858 72.2117C711.632 72.2117 712.292 72.3458 712.838 72.6139C713.395 72.882 713.813 73.2482 714.091 73.7123C714.38 74.1764 714.525 74.6972 714.525 75.2748C714.525 75.9554 714.354 76.5124 714.014 76.9455C713.674 77.3684 713.277 77.6571 712.823 77.8118V77.8737C713.411 78.0697 713.875 78.3946 714.215 78.8483C714.555 79.3021 714.726 79.8848 714.726 80.5965C714.726 81.2359 714.576 81.8031 714.277 82.2982C713.988 82.7829 713.56 83.1645 712.993 83.443C712.436 83.7214 711.771 83.8606 710.997 83.8606C709.76 83.8606 708.77 83.5564 708.027 82.9479C707.295 82.3394 706.908 81.4215 706.867 80.1942H709.435C709.445 80.648 709.574 81.009 709.822 81.2771C710.069 81.535 710.43 81.6639 710.905 81.6639C711.307 81.6639 711.616 81.5504 711.833 81.3236C712.06 81.0863 712.173 80.7769 712.173 80.3953C712.173 79.9003 712.013 79.5445 711.694 79.3279C711.384 79.101 710.884 78.9876 710.193 78.9876H709.698V76.8372H710.193C710.719 76.8372 711.142 76.7496 711.461 76.5742C711.791 76.3886 711.957 76.0637 711.957 75.5996C711.957 75.2283 711.853 74.9396 711.647 74.7333C711.441 74.527 711.157 74.4239 710.796 74.4239C710.404 74.4239 710.11 74.5425 709.914 74.7797C709.729 75.0169 709.621 75.3108 709.59 75.6615H707.006Z" fill="white"/>
<path d="M845.929 34.9469H844.188V36.7287H842.566V34.9469H840.824V33.4154H842.566V31.6236H844.188V33.4154H845.929V34.9469ZM851.635 31.6536L849.122 37.6797H847.37L849.913 31.8438H846.8V30.3824H851.635V31.6536ZM857.472 31.8638H854.349V33.2452C854.482 33.0984 854.669 32.9783 854.909 32.8849C855.15 32.7914 855.41 32.7447 855.69 32.7447C856.191 32.7447 856.604 32.8582 856.931 33.0851C857.265 33.312 857.509 33.6056 857.662 33.966C857.816 34.3263 857.892 34.7167 857.892 35.1371C857.892 35.9179 857.672 36.5385 857.232 36.999C856.791 37.4528 856.171 37.6797 855.37 37.6797C854.836 37.6797 854.372 37.5896 853.978 37.4094C853.585 37.2226 853.281 36.9656 853.068 36.6386C852.854 36.3116 852.737 35.9346 852.717 35.5075H854.389C854.429 35.7144 854.526 35.8879 854.679 36.028C854.833 36.1615 855.043 36.2282 855.31 36.2282C855.623 36.2282 855.857 36.1281 856.01 35.9279C856.164 35.7277 856.241 35.4608 856.241 35.1271C856.241 34.8001 856.161 34.5499 856 34.3764C855.84 34.2029 855.607 34.1161 855.3 34.1161C855.073 34.1161 854.886 34.1728 854.739 34.2863C854.592 34.3931 854.496 34.5365 854.449 34.7167H852.797V30.3623H857.472V31.8638ZM859.808 37.7598C859.508 37.7598 859.261 37.673 859.067 37.4995C858.881 37.3193 858.787 37.0991 858.787 36.8388C858.787 36.5719 858.881 36.3484 859.067 36.1682C859.261 35.988 859.508 35.8979 859.808 35.8979C860.102 35.8979 860.342 35.988 860.529 36.1682C860.722 36.3484 860.819 36.5719 860.819 36.8388C860.819 37.0991 860.722 37.3193 860.529 37.4995C860.342 37.673 860.102 37.7598 859.808 37.7598ZM865.276 32.3443C865.223 32.0974 865.129 31.9139 864.996 31.7938C864.862 31.667 864.672 31.6036 864.425 31.6036C864.045 31.6036 863.771 31.7704 863.604 32.1041C863.437 32.4311 863.351 32.9516 863.344 33.6657C863.491 33.4321 863.701 33.2486 863.975 33.1151C864.255 32.9816 864.562 32.9149 864.896 32.9149C865.55 32.9149 866.073 33.1218 866.467 33.5355C866.868 33.9493 867.068 34.5265 867.068 35.2673C867.068 35.7544 866.968 36.1815 866.767 36.5486C866.574 36.9156 866.287 37.2025 865.907 37.4094C865.533 37.6163 865.089 37.7197 864.575 37.7197C863.548 37.7197 862.833 37.3994 862.433 36.7588C862.033 36.1114 861.832 35.1838 861.832 33.976C861.832 32.708 862.043 31.7671 862.463 31.1531C862.89 30.5325 863.571 30.2222 864.505 30.2222C865.006 30.2222 865.426 30.3223 865.766 30.5225C866.113 30.716 866.374 30.973 866.547 31.2933C866.727 31.6136 866.834 31.964 866.868 32.3443H865.276ZM864.485 34.2663C864.198 34.2663 863.958 34.353 863.764 34.5265C863.578 34.6934 863.484 34.9336 863.484 35.2472C863.484 35.5676 863.571 35.8178 863.744 35.998C863.925 36.1782 864.178 36.2683 864.505 36.2683C864.799 36.2683 865.029 36.1815 865.196 36.008C865.369 35.8278 865.456 35.5843 865.456 35.2773C865.456 34.9636 865.373 34.7167 865.206 34.5365C865.039 34.3564 864.799 34.2663 864.485 34.2663ZM869.878 35.5375C869.978 36.0647 870.285 36.3283 870.799 36.3283C871.152 36.3283 871.403 36.1715 871.549 35.8579C871.696 35.5442 871.77 35.0337 871.77 34.3263C871.623 34.5332 871.423 34.6934 871.169 34.8068C870.915 34.9203 870.632 34.977 870.318 34.977C869.891 34.977 869.511 34.8902 869.177 34.7167C868.843 34.5365 868.58 34.2729 868.386 33.9259C868.199 33.5722 868.106 33.1451 868.106 32.6446C868.106 32.1508 868.206 31.7204 868.406 31.3533C868.613 30.9863 868.903 30.7027 869.277 30.5025C869.658 30.3023 870.105 30.2022 870.618 30.2022C871.606 30.2022 872.297 30.5092 872.691 31.1231C873.084 31.7371 873.281 32.6413 873.281 33.8358C873.281 34.7034 873.201 35.4208 873.041 35.988C872.887 36.5486 872.624 36.9756 872.25 37.2693C871.883 37.5629 871.379 37.7097 870.739 37.7097C870.231 37.7097 869.798 37.6096 869.437 37.4094C869.084 37.2092 868.81 36.9456 868.616 36.6186C868.43 36.2916 868.323 35.9313 868.296 35.5375H869.878ZM870.709 33.6256C870.989 33.6256 871.212 33.5422 871.379 33.3754C871.546 33.2019 871.629 32.9683 871.629 32.6747C871.629 32.3543 871.543 32.1074 871.369 31.9339C871.196 31.7604 870.962 31.6737 870.669 31.6737C870.375 31.6737 870.141 31.7637 869.968 31.9439C869.801 32.1174 869.718 32.3577 869.718 32.6647C869.718 32.9516 869.801 33.1852 869.968 33.3654C870.141 33.5389 870.388 33.6256 870.709 33.6256ZM874.054 32.2142C874.054 31.6737 874.208 31.2566 874.515 30.9629C874.828 30.6693 875.232 30.5225 875.726 30.5225C876.22 30.5225 876.62 30.6693 876.927 30.9629C877.234 31.2566 877.388 31.6737 877.388 32.2142C877.388 32.7547 877.234 33.1718 876.927 33.4655C876.62 33.7591 876.22 33.9059 875.726 33.9059C875.232 33.9059 874.828 33.7591 874.515 33.4655C874.208 33.1718 874.054 32.7547 874.054 32.2142ZM880.851 30.6326L876.997 37.6797H875.346L879.199 30.6326H880.851ZM875.716 31.5235C875.396 31.5235 875.235 31.7537 875.235 32.2142C875.235 32.668 875.396 32.8949 875.716 32.8949C875.869 32.8949 875.99 32.8382 876.076 32.7247C876.163 32.6113 876.206 32.4411 876.206 32.2142C876.206 31.7537 876.043 31.5235 875.716 31.5235ZM878.819 36.0981C878.819 35.5576 878.973 35.1405 879.28 34.8468C879.586 34.5532 879.987 34.4064 880.481 34.4064C880.975 34.4064 881.375 34.5532 881.682 34.8468C881.989 35.1405 882.142 35.5576 882.142 36.0981C882.142 36.6386 881.989 37.0557 881.682 37.3494C881.375 37.643 880.975 37.7898 880.481 37.7898C879.987 37.7898 879.586 37.643 879.28 37.3494C878.973 37.0557 878.819 36.6386 878.819 36.0981ZM880.471 35.4074C880.317 35.4074 880.197 35.4641 880.11 35.5776C880.03 35.691 879.99 35.8645 879.99 36.0981C879.99 36.5519 880.15 36.7788 880.471 36.7788C880.624 36.7788 880.744 36.7221 880.831 36.6086C880.918 36.4952 880.961 36.325 880.961 36.0981C880.961 35.8712 880.918 35.701 880.831 35.5876C880.744 35.4675 880.624 35.4074 880.471 35.4074Z" fill="#50E3C2"/>
<path d="M830.743 36.8654L829.715 38.2671C829.337 38.7832 828.723 38.7832 828.345 38.2671C827.966 37.751 827.966 36.9142 828.345 36.3981L829.373 34.9963L826.666 31.3053H833.45V40.5564L830.743 36.8654Z" fill="#50E3C2"/>
<path opacity="0.2" d="M1001.41 31.1963C1001.85 31.2909 1002.21 31.513 1002.48 31.8624C1002.75 32.2046 1002.88 32.5977 1002.88 33.0418C1002.88 33.6824 1002.66 34.192 1002.2 34.5706C1001.76 34.9419 1001.14 35.1275 1000.34 35.1275H996.766V27.4616H1000.22C1001 27.4616 1001.6 27.64 1002.04 27.9967C1002.48 28.3534 1002.71 28.8376 1002.71 29.4491C1002.71 29.9004 1002.59 30.2754 1002.35 30.5738C1002.11 30.8723 1001.8 31.0798 1001.41 31.1963ZM998.634 30.5629H999.857C1000.16 30.5629 1000.4 30.4974 1000.56 30.3664C1000.72 30.228 1000.81 30.0278 1000.81 29.7658C1000.81 29.5037 1000.72 29.3035 1000.56 29.1652C1000.4 29.0268 1000.16 28.9577 999.857 28.9577H998.634V30.5629ZM1000.01 33.6205C1000.32 33.6205 1000.56 33.5514 1000.73 33.4131C1000.9 33.2675 1000.99 33.06 1000.99 32.7906C1000.99 32.5212 1000.9 32.3101 1000.72 32.1572C1000.54 32.0044 1000.3 31.9279 999.988 31.9279H998.634V33.6205H1000.01ZM1009.48 27.4616V28.9577H1007.45V35.1275H1005.58V28.9577H1003.55V27.4616H1009.48ZM1010.1 31.2836C1010.1 30.5265 1010.26 29.8531 1010.59 29.2634C1010.92 28.6665 1011.37 28.2042 1011.96 27.8766C1012.55 27.5417 1013.21 27.3743 1013.95 27.3743C1014.86 27.3743 1015.64 27.6145 1016.29 28.095C1016.94 28.5755 1017.37 29.2307 1017.59 30.0606H1015.54C1015.38 29.7403 1015.17 29.4964 1014.88 29.329C1014.61 29.1615 1014.29 29.0778 1013.93 29.0778C1013.36 29.0778 1012.89 29.278 1012.53 29.6784C1012.18 30.0788 1012 30.6139 1012 31.2836C1012 31.9534 1012.18 32.4885 1012.53 32.8889C1012.89 33.2893 1013.36 33.4895 1013.93 33.4895C1014.29 33.4895 1014.61 33.4058 1014.88 33.2383C1015.17 33.0709 1015.38 32.827 1015.54 32.5067H1017.59C1017.37 33.3366 1016.94 33.9918 1016.29 34.4723C1015.64 34.9455 1014.86 35.1821 1013.95 35.1821C1013.21 35.1821 1012.55 35.0183 1011.96 34.6907C1011.37 34.3558 1010.92 33.8935 1010.59 33.3039C1010.26 32.7142 1010.1 32.0408 1010.1 31.2836Z" fill="white"/>
<path opacity="0.2" d="M1073.52 27.4613V35.1272H1071.65V27.4613H1073.52ZM1077.74 27.4613C1078.55 27.4613 1079.26 27.6215 1079.86 27.9418C1080.47 28.2621 1080.93 28.7135 1081.26 29.2959C1081.59 29.871 1081.76 30.5371 1081.76 31.2943C1081.76 32.0441 1081.59 32.7102 1081.26 33.2926C1080.93 33.875 1080.46 34.3264 1079.85 34.6467C1079.25 34.967 1078.54 35.1272 1077.74 35.1272H1074.87V27.4613H1077.74ZM1077.62 33.511C1078.33 33.511 1078.88 33.3181 1079.27 32.9323C1079.66 32.5464 1079.86 32.0004 1079.86 31.2943C1079.86 30.5881 1079.66 30.0385 1079.27 29.6453C1078.88 29.2522 1078.33 29.0556 1077.62 29.0556H1076.74V33.511H1077.62ZM1086.71 35.1272L1085.12 32.2334H1084.67V35.1272H1082.81V27.4613H1085.94C1086.54 27.4613 1087.06 27.5669 1087.48 27.778C1087.91 27.9891 1088.23 28.2803 1088.44 28.6516C1088.65 29.0156 1088.76 29.4233 1088.76 29.8747C1088.76 30.3843 1088.61 30.8393 1088.32 31.2397C1088.04 31.6401 1087.61 31.924 1087.05 32.0914L1088.82 35.1272H1086.71ZM1084.67 30.9121H1085.83C1086.17 30.9121 1086.43 30.8283 1086.59 30.6609C1086.77 30.4935 1086.86 30.2569 1086.86 29.9511C1086.86 29.6599 1086.77 29.4306 1086.59 29.2631C1086.43 29.0957 1086.17 29.012 1085.83 29.012H1084.67V30.9121Z" fill="white"/>
<path d="M1042.48 37.0038L1038.41 32.3782L1042.48 27.7527" stroke="white" stroke-width="1.82001"/>
<path d="M1046.55 43.1713L1050.62 38.5457L1046.55 33.9202" stroke="white" stroke-width="1.82001"/>
<g filter="url(#filter6_f)">
<ellipse rx="13.0577" ry="15.0042" transform="matrix(0.846131 0.532975 -0.438414 0.898773 1203.93 106.788)" fill="url(#paint6_linear)"/>
</g>
<g filter="url(#filter7_d)">
<path d="M987.865 131.057C987.865 131.057 999.439 160.352 1009.57 160.352C1019.69 160.352 1034.89 131.057 1047.91 131.057C1060.93 131.057 1067.45 143.392 1080.47 143.392C1093.49 143.392 1107.07 120.264 1115.75 120.264C1124.43 120.264 1148.68 143.392 1164.59 143.392C1178.76 143.392 1202.99 114.631 1210.73 106.387" stroke="url(#paint7_linear)" stroke-width="2.73001" stroke-linecap="round" stroke-linejoin="round"/>
</g>
<path opacity="0.7" d="M985.911 74.4659V72.0062H990.196V83.2993H987.443V74.4659H985.911ZM992.006 77.498C992.006 75.7241 992.346 74.3267 993.027 73.3056C993.718 72.2846 994.827 71.7741 996.353 71.7741C997.879 71.7741 998.983 72.2846 999.664 73.3056C1000.35 74.3267 1000.7 75.7241 1000.7 77.498C1000.7 79.2926 1000.35 80.7003 999.664 81.7214C998.983 82.7424 997.879 83.2529 996.353 83.2529C994.827 83.2529 993.718 82.7424 993.027 81.7214C992.346 80.7003 992.006 79.2926 992.006 77.498ZM998.101 77.498C998.101 76.4564 997.988 75.6571 997.761 75.1002C997.534 74.5329 997.065 74.2493 996.353 74.2493C995.641 74.2493 995.172 74.5329 994.945 75.1002C994.718 75.6571 994.605 76.4564 994.605 77.498C994.605 78.1993 994.646 78.7821 994.729 79.2462C994.811 79.6999 994.976 80.0712 995.224 80.36C995.481 80.6385 995.858 80.7777 996.353 80.7777C996.848 80.7777 997.219 80.6385 997.467 80.36C997.725 80.0712 997.895 79.6999 997.977 79.2462C998.06 78.7821 998.101 78.1993 998.101 77.498ZM1009.31 73.9863L1005.42 83.2993H1002.72L1006.65 74.2803H1001.83V72.0216H1009.31V73.9863ZM1011.88 83.4231C1011.41 83.4231 1011.03 83.289 1010.73 83.0209C1010.44 82.7424 1010.3 82.4021 1010.3 81.9998C1010.3 81.5873 1010.44 81.2418 1010.73 80.9633C1011.03 80.6849 1011.41 80.5456 1011.88 80.5456C1012.33 80.5456 1012.7 80.6849 1012.99 80.9633C1013.29 81.2418 1013.44 81.5873 1013.44 81.9998C1013.44 82.4021 1013.29 82.7424 1012.99 83.0209C1012.7 83.289 1012.33 83.4231 1011.88 83.4231ZM1022.69 74.3112H1017.87V76.4461C1018.07 76.2192 1018.36 76.0335 1018.73 75.8892C1019.11 75.7448 1019.51 75.6726 1019.94 75.6726C1020.71 75.6726 1021.35 75.8479 1021.86 76.1986C1022.37 76.5492 1022.75 77.003 1022.99 77.5599C1023.23 78.1168 1023.34 78.7202 1023.34 79.3699C1023.34 80.5766 1023 81.5357 1022.32 82.2474C1021.64 82.9487 1020.68 83.2993 1019.45 83.2993C1018.62 83.2993 1017.9 83.1601 1017.3 82.8816C1016.69 82.5928 1016.22 82.1958 1015.89 81.6904C1015.56 81.1851 1015.38 80.6024 1015.35 79.9423H1017.93C1017.99 80.262 1018.14 80.5302 1018.38 80.7468C1018.62 80.953 1018.94 81.0562 1019.35 81.0562C1019.84 81.0562 1020.2 80.9015 1020.44 80.5921C1020.67 80.2827 1020.79 79.8701 1020.79 79.3544C1020.79 78.8491 1020.67 78.4623 1020.42 78.1942C1020.17 77.926 1019.81 77.792 1019.34 77.792C1018.99 77.792 1018.7 77.8796 1018.47 78.055C1018.24 78.22 1018.09 78.4417 1018.02 78.7202H1015.47V71.9907H1022.69V74.3112ZM1024.87 81.2882V79.1533L1029.75 72.1609H1032.71V78.9986H1033.98V81.2882H1032.71V83.2993H1030.06V81.2882H1024.87ZM1030.25 75.0692L1027.65 78.9986H1030.25V75.0692ZM1035.37 75.193C1035.41 74.0895 1035.77 73.2386 1036.45 72.6404C1037.13 72.0423 1038.05 71.7432 1039.22 71.7432C1039.99 71.7432 1040.65 71.8772 1041.2 72.1454C1041.76 72.4135 1042.17 72.7797 1042.45 73.2438C1042.74 73.7079 1042.88 74.2287 1042.88 74.8062C1042.88 75.4869 1042.71 76.0439 1042.37 76.477C1042.03 76.8999 1041.64 77.1886 1041.18 77.3433V77.4052C1041.77 77.6012 1042.24 77.926 1042.58 78.3798C1042.92 78.8336 1043.09 79.4163 1043.09 80.128C1043.09 80.7674 1042.94 81.3346 1042.64 81.8297C1042.35 82.3144 1041.92 82.696 1041.35 82.9744C1040.8 83.2529 1040.13 83.3921 1039.36 83.3921C1038.12 83.3921 1037.13 83.0879 1036.39 82.4794C1035.66 81.8709 1035.27 80.953 1035.23 79.7257H1037.8C1037.81 80.1795 1037.93 80.5405 1038.18 80.8086C1038.43 81.0665 1038.79 81.1954 1039.26 81.1954C1039.67 81.1954 1039.98 81.0819 1040.19 80.855C1040.42 80.6178 1040.53 80.3084 1040.53 79.9268C1040.53 79.4318 1040.37 79.076 1040.05 78.8594C1039.74 78.6325 1039.24 78.5191 1038.55 78.5191H1038.06V76.3687H1038.55C1039.08 76.3687 1039.5 76.2811 1039.82 76.1057C1040.15 75.9201 1040.32 75.5952 1040.32 75.1311C1040.32 74.7598 1040.21 74.4711 1040.01 74.2648C1039.8 74.0585 1039.52 73.9554 1039.16 73.9554C1038.76 73.9554 1038.47 74.074 1038.27 74.3112C1038.09 74.5484 1037.98 74.8423 1037.95 75.193H1035.37ZM1047.75 80.855L1046.03 85.295H1044.35L1045.24 80.855H1047.75ZM1048.99 81.1799C1049.34 80.9015 1049.5 80.7725 1049.47 80.7932C1050.48 79.9578 1051.27 79.2719 1051.85 78.7356C1052.44 78.1993 1052.93 77.6373 1053.34 77.0494C1053.74 76.4615 1053.94 75.8892 1053.94 75.3322C1053.94 74.9094 1053.84 74.5794 1053.65 74.3421C1053.45 74.1049 1053.16 73.9863 1052.76 73.9863C1052.37 73.9863 1052.06 74.1359 1051.84 74.435C1051.62 74.7237 1051.51 75.1363 1051.51 75.6726H1048.96C1048.98 74.7959 1049.16 74.0637 1049.52 73.4758C1049.88 72.888 1050.35 72.4548 1050.92 72.1763C1051.51 71.8979 1052.16 71.7586 1052.87 71.7586C1054.1 71.7586 1055.02 72.0732 1055.64 72.7023C1056.27 73.3314 1056.58 74.1513 1056.58 75.1621C1056.58 76.2656 1056.21 77.2918 1055.46 78.2406C1054.7 79.1791 1053.74 80.097 1052.58 80.9943H1056.76V83.1446H1048.99V81.1799ZM1058.01 75.193C1058.05 74.0895 1058.41 73.2386 1059.1 72.6404C1059.78 72.0423 1060.7 71.7432 1061.86 71.7432C1062.64 71.7432 1063.3 71.8772 1063.84 72.1454C1064.4 72.4135 1064.82 72.7797 1065.1 73.2438C1065.39 73.7079 1065.53 74.2287 1065.53 74.8062C1065.53 75.4869 1065.36 76.0439 1065.02 76.477C1064.68 76.8999 1064.28 77.1886 1063.83 77.3433V77.4052C1064.42 77.6012 1064.88 77.926 1065.22 78.3798C1065.56 78.8336 1065.73 79.4163 1065.73 80.128C1065.73 80.7674 1065.58 81.3346 1065.28 81.8297C1064.99 82.3144 1064.57 82.696 1064 82.9744C1063.44 83.2529 1062.78 83.3921 1062 83.3921C1060.77 83.3921 1059.78 83.0879 1059.03 82.4794C1058.3 81.8709 1057.91 80.953 1057.87 79.7257H1060.44C1060.45 80.1795 1060.58 80.5405 1060.83 80.8086C1061.08 81.0665 1061.44 81.1954 1061.91 81.1954C1062.31 81.1954 1062.62 81.0819 1062.84 80.855C1063.07 80.6178 1063.18 80.3084 1063.18 79.9268C1063.18 79.4318 1063.02 79.076 1062.7 78.8594C1062.39 78.6325 1061.89 78.5191 1061.2 78.5191H1060.7V76.3687H1061.2C1061.73 76.3687 1062.15 76.2811 1062.47 76.1057C1062.8 75.9201 1062.96 75.5952 1062.96 75.1311C1062.96 74.7598 1062.86 74.4711 1062.65 74.2648C1062.45 74.0585 1062.16 73.9554 1061.8 73.9554C1061.41 73.9554 1061.12 74.074 1060.92 74.3112C1060.74 74.5484 1060.63 74.8423 1060.6 75.193H1058.01ZM1067.35 81.2882V79.1533L1072.24 72.1609H1075.19V78.9986H1076.46V81.2882H1075.19V83.2993H1072.55V81.2882H1067.35ZM1072.73 75.0692L1070.13 78.9986H1072.73V75.0692Z" fill="white"/>
<path d="M1178.43 34.4784H1176.69V36.2602H1175.07V34.4784H1173.33V32.9469H1175.07V31.1551H1176.69V32.9469H1178.43V34.4784ZM1179.29 31.4954V29.9038H1182.06V37.2112H1180.28V31.4954H1179.29ZM1183.3 31.9659C1183.32 31.2519 1183.56 30.7013 1184 30.3143C1184.44 29.9272 1185.03 29.7337 1185.79 29.7337C1186.29 29.7337 1186.72 29.8204 1187.07 29.9939C1187.43 30.1674 1187.7 30.4043 1187.88 30.7047C1188.07 31.005 1188.16 31.342 1188.16 31.7157C1188.16 32.1561 1188.05 32.5165 1187.83 32.7968C1187.61 33.0704 1187.35 33.2572 1187.06 33.3573V33.3974C1187.44 33.5241 1187.74 33.7344 1187.96 34.028C1188.18 34.3216 1188.29 34.6987 1188.29 35.1591C1188.29 35.5729 1188.19 35.9399 1188 36.2602C1187.81 36.5739 1187.54 36.8208 1187.17 37.001C1186.81 37.1812 1186.38 37.2712 1185.88 37.2712C1185.08 37.2712 1184.44 37.0744 1183.96 36.6806C1183.48 36.2869 1183.23 35.693 1183.21 34.8989H1184.87C1184.87 35.1925 1184.96 35.4261 1185.12 35.5996C1185.28 35.7664 1185.51 35.8498 1185.82 35.8498C1186.08 35.8498 1186.28 35.7764 1186.42 35.6296C1186.57 35.4761 1186.64 35.2759 1186.64 35.029C1186.64 34.7087 1186.54 34.4784 1186.33 34.3383C1186.13 34.1915 1185.8 34.1181 1185.36 34.1181H1185.04V32.7267H1185.36C1185.7 32.7267 1185.97 32.67 1186.18 32.5565C1186.39 32.4364 1186.5 32.2262 1186.5 31.9259C1186.5 31.6856 1186.43 31.4988 1186.3 31.3653C1186.16 31.2318 1185.98 31.1651 1185.75 31.1651C1185.49 31.1651 1185.3 31.2419 1185.18 31.3953C1185.06 31.5488 1184.99 31.739 1184.97 31.9659H1183.3ZM1189.24 35.8398C1189.46 35.6596 1189.57 35.5762 1189.55 35.5896C1190.2 35.049 1190.71 34.6052 1191.09 34.2582C1191.47 33.9112 1191.79 33.5475 1192.05 33.1671C1192.31 32.7867 1192.44 32.4164 1192.44 32.056C1192.44 31.7824 1192.38 31.5689 1192.25 31.4154C1192.12 31.2619 1191.93 31.1851 1191.68 31.1851C1191.42 31.1851 1191.22 31.2819 1191.08 31.4754C1190.94 31.6623 1190.87 31.9292 1190.87 32.2762H1189.22C1189.23 31.709 1189.35 31.2352 1189.58 30.8548C1189.81 30.4744 1190.11 30.1941 1190.49 30.014C1190.87 29.8338 1191.29 29.7437 1191.75 29.7437C1192.54 29.7437 1193.14 29.9472 1193.54 30.3543C1193.95 30.7614 1194.15 31.2919 1194.15 31.9459C1194.15 32.6599 1193.91 33.3239 1193.42 33.9379C1192.93 34.5452 1192.31 35.1391 1191.56 35.7197H1194.26V37.1111H1189.24V35.8398ZM1194.87 31.7457C1194.87 31.2052 1195.03 30.7881 1195.33 30.4944C1195.65 30.2008 1196.05 30.054 1196.55 30.054C1197.04 30.054 1197.44 30.2008 1197.75 30.4944C1198.05 30.7881 1198.21 31.2052 1198.21 31.7457C1198.21 32.2862 1198.05 32.7033 1197.75 32.997C1197.44 33.2906 1197.04 33.4374 1196.55 33.4374C1196.05 33.4374 1195.65 33.2906 1195.33 32.997C1195.03 32.7033 1194.87 32.2862 1194.87 31.7457ZM1201.67 30.1641L1197.82 37.2112H1196.17L1200.02 30.1641H1201.67ZM1196.54 31.055C1196.22 31.055 1196.06 31.2852 1196.06 31.7457C1196.06 32.1995 1196.22 32.4264 1196.54 32.4264C1196.69 32.4264 1196.81 32.3697 1196.9 32.2562C1196.98 32.1428 1197.03 31.9726 1197.03 31.7457C1197.03 31.2852 1196.86 31.055 1196.54 31.055ZM1199.64 35.6296C1199.64 35.0891 1199.79 34.672 1200.1 34.3783C1200.41 34.0847 1200.81 33.9379 1201.3 33.9379C1201.79 33.9379 1202.2 34.0847 1202.5 34.3783C1202.81 34.672 1202.96 35.0891 1202.96 35.6296C1202.96 36.1701 1202.81 36.5872 1202.5 36.8809C1202.2 37.1745 1201.79 37.3213 1201.3 37.3213C1200.81 37.3213 1200.41 37.1745 1200.1 36.8809C1199.79 36.5872 1199.64 36.1701 1199.64 35.6296ZM1201.29 34.9389C1201.14 34.9389 1201.02 34.9956 1200.93 35.1091C1200.85 35.2225 1200.81 35.396 1200.81 35.6296C1200.81 36.0834 1200.97 36.3103 1201.29 36.3103C1201.44 36.3103 1201.56 36.2536 1201.65 36.1401C1201.74 36.0267 1201.78 35.8565 1201.78 35.6296C1201.78 35.4027 1201.74 35.2325 1201.65 35.1191C1201.56 34.999 1201.44 34.9389 1201.29 34.9389Z" fill="#50E3C2"/>
<path d="M1163.24 36.3973L1162.22 37.7991C1161.84 38.3152 1161.22 38.3152 1160.85 37.7991C1160.47 37.283 1160.47 36.4462 1160.85 35.9301L1161.87 34.5283L1159.17 30.8373H1165.95V40.0884L1163.24 36.3973Z" fill="#50E3C2"/>
<defs>
<filter id="filter0_f" x="197.004" y="54.6564" width="100.565" height="105.201" filterUnits="userSpaceOnUse" color-interpolation-filters="sRGB">
<feFlood flood-opacity="0" result="BackgroundImageFix"/>
<feBlend mode="normal" in="SourceGraphic" in2="BackgroundImageFix" result="shape"/>
<feGaussianBlur stdDeviation="18.7111" result="effect1_foregroundBlur"/>
</filter>
<filter id="filter1_d" x="18.3848" y="105.491" width="239.38" height="76.4371" filterUnits="userSpaceOnUse" color-interpolation-filters="sRGB">
<feFlood flood-opacity="0" result="BackgroundImageFix"/>
<feColorMatrix in="SourceAlpha" type="matrix" values="0 0 0 0 0 0 0 0 0 0 0 0 0 0 0 0 0 0 127 0" result="hardAlpha"/>
<feOffset dy="9.10004"/>
<feGaussianBlur stdDeviation="4.55002"/>
<feColorMatrix type="matrix" values="0 0 0 0 0.0456816 0 0 0 0 0.0410428 0 0 0 0 0.12686 0 0 0 0.54362 0"/>
<feBlend mode="normal" in2="BackgroundImageFix" result="effect1_dropShadow"/>
<feBlend mode="normal" in="SourceGraphic" in2="effect1_dropShadow" result="shape"/>
</filter>
<filter id="filter2_f" x="515.86" y="54.6564" width="100.565" height="105.201" filterUnits="userSpaceOnUse" color-interpolation-filters="sRGB">
<feFlood flood-opacity="0" result="BackgroundImageFix"/>
<feBlend mode="normal" in="SourceGraphic" in2="BackgroundImageFix" result="shape"/>
<feGaussianBlur stdDeviation="18.7111" result="effect1_foregroundBlur"/>
</filter>
<filter id="filter3_d" x="337.24" y="102.004" width="239.38" height="73.7573" filterUnits="userSpaceOnUse" color-interpolation-filters="sRGB">
<feFlood flood-opacity="0" result="BackgroundImageFix"/>
<feColorMatrix in="SourceAlpha" type="matrix" values="0 0 0 0 0 0 0 0 0 0 0 0 0 0 0 0 0 0 127 0" result="hardAlpha"/>
<feOffset dy="9.10004"/>
<feGaussianBlur stdDeviation="4.55002"/>
<feColorMatrix type="matrix" values="0 0 0 0 0.0456816 0 0 0 0 0.0410428 0 0 0 0 0.12686 0 0 0 0.54362 0"/>
<feBlend mode="normal" in2="BackgroundImageFix" result="effect1_dropShadow"/>
<feBlend mode="normal" in="SourceGraphic" in2="effect1_dropShadow" result="shape"/>
</filter>
<filter id="filter4_f" x="822.88" y="67.701" width="105.238" height="106.865" filterUnits="userSpaceOnUse" color-interpolation-filters="sRGB">
<feFlood flood-opacity="0" result="BackgroundImageFix"/>
<feBlend mode="normal" in="SourceGraphic" in2="BackgroundImageFix" result="shape"/>
<feGaussianBlur stdDeviation="18.7111" result="effect1_foregroundBlur"/>
</filter>
<filter id="filter5_d" x="656.095" y="119.368" width="229.882" height="56.3927" filterUnits="userSpaceOnUse" color-interpolation-filters="sRGB">
<feFlood flood-opacity="0" result="BackgroundImageFix"/>
<feColorMatrix in="SourceAlpha" type="matrix" values="0 0 0 0 0 0 0 0 0 0 0 0 0 0 0 0 0 0 127 0" result="hardAlpha"/>
<feOffset dy="9.10004"/>
<feGaussianBlur stdDeviation="4.55002"/>
<feColorMatrix type="matrix" values="0 0 0 0 0.0456816 0 0 0 0 0.0410428 0 0 0 0 0.12686 0 0 0 0.54362 0"/>
<feBlend mode="normal" in2="BackgroundImageFix" result="effect1_dropShadow"/>
<feBlend mode="normal" in="SourceGraphic" in2="effect1_dropShadow" result="shape"/>
</filter>
<filter id="filter6_f" x="1153.65" y="54.1877" width="100.565" height="105.201" filterUnits="userSpaceOnUse" color-interpolation-filters="sRGB">
<feFlood flood-opacity="0" result="BackgroundImageFix"/>
<feBlend mode="normal" in="SourceGraphic" in2="BackgroundImageFix" result="shape"/>
<feGaussianBlur stdDeviation="18.7111" result="effect1_foregroundBlur"/>
</filter>
<filter id="filter7_d" x="977.4" y="105.022" width="243.792" height="74.8949" filterUnits="userSpaceOnUse" color-interpolation-filters="sRGB">
<feFlood flood-opacity="0" result="BackgroundImageFix"/>
<feColorMatrix in="SourceAlpha" type="matrix" values="0 0 0 0 0 0 0 0 0 0 0 0 0 0 0 0 0 0 127 0" result="hardAlpha"/>
<feOffset dy="9.10004"/>
<feGaussianBlur stdDeviation="4.55002"/>
<feColorMatrix type="matrix" values="0 0 0 0 0.0456816 0 0 0 0 0.0410428 0 0 0 0 0.12686 0 0 0 0.54362 0"/>
<feBlend mode="normal" in2="BackgroundImageFix" result="effect1_dropShadow"/>
<feBlend mode="normal" in="SourceGraphic" in2="effect1_dropShadow" result="shape"/>
</filter>
<linearGradient id="paint0_linear" x1="14.2763" y1="38.4833" x2="30.729" y2="26.1419" gradientUnits="userSpaceOnUse">
<stop stop-color="#FF62B8" stop-opacity="0.01"/>
<stop offset="1" stop-color="#FE33D1"/>
</linearGradient>
<linearGradient id="paint1_linear" x1="112.38" y1="92.1603" x2="146.799" y2="195.754" gradientUnits="userSpaceOnUse">
<stop stop-color="#A330FF" stop-opacity="0.01"/>
<stop offset="0.393247" stop-color="#BC3DCB"/>
<stop offset="1" stop-color="#E3507A"/>
</linearGradient>
<linearGradient id="paint2_linear" x1="14.2763" y1="38.4833" x2="30.729" y2="26.1419" gradientUnits="userSpaceOnUse">
<stop stop-color="#6EFF61" stop-opacity="0.01"/>
<stop offset="1" stop-color="#5AFF5C"/>
</linearGradient>
<linearGradient id="paint3_linear" x1="565.574" y1="178.052" x2="347.705" y2="178.052" gradientUnits="userSpaceOnUse">
<stop stop-color="#63C178"/>
<stop offset="0.831269" stop-color="#36BBFF" stop-opacity="0.466004"/>
<stop offset="1" stop-color="#C1F793" stop-opacity="0.01"/>
</linearGradient>
<linearGradient id="paint4_linear" x1="17.6964" y1="38.4833" x2="34.7886" y2="22.5907" gradientUnits="userSpaceOnUse">
<stop stop-color="#FFBD3D" stop-opacity="0.01"/>
<stop offset="1" stop-color="#FFCE5A"/>
</linearGradient>
<linearGradient id="paint5_linear" x1="874.956" y1="170.374" x2="672.385" y2="170.374" gradientUnits="userSpaceOnUse">
<stop stop-color="#FFAD57"/>
<stop offset="0.770692" stop-color="#EAFF00" stop-opacity="0.466004"/>
<stop offset="1" stop-color="#FF8502" stop-opacity="0.01"/>
</linearGradient>
<linearGradient id="paint6_linear" x1="14.2763" y1="38.4833" x2="30.729" y2="26.1419" gradientUnits="userSpaceOnUse">
<stop stop-color="#FF62B8" stop-opacity="0.01"/>
<stop offset="1" stop-color="#FE33D1"/>
</linearGradient>
<linearGradient id="paint7_linear" x1="1043.58" y1="160.352" x2="1096.5" y2="51.0708" gradientUnits="userSpaceOnUse">
<stop stop-color="#FFDB30" stop-opacity="0.01"/>
<stop offset="0.393247" stop-color="#E27034"/>
<stop offset="1" stop-color="#3EDEF6"/>
</linearGradient>
</defs>
</svg>
