<svg width="76" height="53" viewBox="0 0 76 53" fill="none" xmlns="http://www.w3.org/2000/svg">
<mask id="mask0" mask-type="alpha" maskUnits="userSpaceOnUse" x="0" y="0" width="76" height="53">
<path d="M67.9786 0H7.58378C3.65965 0 0.478516 3.16385 0.478516 7.06667V45.9333C0.478516 49.8361 3.65965 53 7.58378 53H67.9786C71.9027 53 75.0838 49.8361 75.0838 45.9333V7.06667C75.0838 3.16385 71.9027 0 67.9786 0Z" fill="white"/>
</mask>
<g mask="url(#mask0)">
<path d="M67.9786 0H7.58378C3.65965 0 0.478516 3.16385 0.478516 7.06667V45.9333C0.478516 49.8361 3.65965 53 7.58378 53H67.9786C71.9027 53 75.0838 49.8361 75.0838 45.9333V7.06667C75.0838 3.16385 71.9027 0 67.9786 0Z" fill="white"/>
<path fill-rule="evenodd" clip-rule="evenodd" d="M0.478516 0H32.4522V24.7333H0.478516V0Z" fill="#444379"/>
<path fill-rule="evenodd" clip-rule="evenodd" d="M4.03116 3.53333V7.06666H7.58379V3.53333H4.03116ZM11.1364 3.53333V7.06666H14.6891V3.53333H11.1364ZM18.2417 3.53333V7.06666H21.7943V3.53333H18.2417ZM25.347 3.53333V7.06666H28.8996V3.53333H25.347ZM21.7943 7.06666V10.6H25.347V7.06666H21.7943ZM14.6891 7.06666V10.6H18.2417V7.06666H14.6891ZM7.58379 7.06666V10.6H11.1364V7.06666H7.58379ZM4.03116 10.6V14.1333H7.58379V10.6H4.03116ZM11.1364 10.6V14.1333H14.6891V10.6H11.1364ZM18.2417 10.6V14.1333H21.7943V10.6H18.2417ZM25.347 10.6V14.1333H28.8996V10.6H25.347ZM4.03116 17.6667V21.2H7.58379V17.6667H4.03116ZM11.1364 17.6667V21.2H14.6891V17.6667H11.1364ZM18.2417 17.6667V21.2H21.7943V17.6667H18.2417ZM25.347 17.6667V21.2H28.8996V17.6667H25.347ZM21.7943 14.1333V17.6667H25.347V14.1333H21.7943ZM14.6891 14.1333V17.6667H18.2417V14.1333H14.6891ZM7.58379 14.1333V17.6667H11.1364V14.1333H7.58379Z" fill="#A7B6E7"/>
<path fill-rule="evenodd" clip-rule="evenodd" d="M32.4522 0V3.53333H75.0838V0H32.4522ZM32.4522 7.06667V10.6H75.0838V7.06667H32.4522ZM32.4522 14.1333V17.6667H75.0838V14.1333H32.4522ZM32.4522 21.2V24.7333H75.0838V21.2H32.4522ZM0.478516 28.2667V31.8H75.0838V28.2667H0.478516ZM0.478516 35.3333V38.8667H75.0838V35.3333H0.478516ZM0.478516 42.4V45.9333H75.0838V42.4H0.478516ZM0.478516 49.4667V53H75.0838V49.4667H0.478516Z" fill="#ED4C49"/>
<path d="M67.9786 1.76672H7.58377C4.64067 1.76672 2.25482 4.13961 2.25482 7.06672V45.9334C2.25482 48.8605 4.64067 51.2334 7.58377 51.2334H67.9786C70.9216 51.2334 73.3075 48.8605 73.3075 45.9334V7.06672C73.3075 4.13961 70.9216 1.76672 67.9786 1.76672Z" stroke="black" stroke-opacity="0.1"/>
</g>
</svg>
